<?xml version="1.0" encoding="utf-8" standalone="no"?>
<!DOCTYPE svg PUBLIC "-//W3C//DTD SVG 1.1//EN"
  "http://www.w3.org/Graphics/SVG/1.1/DTD/svg11.dtd">
<svg xmlns:xlink="http://www.w3.org/1999/xlink" width="625.155pt" height="492.401981pt" viewBox="0 0 625.155 492.401981" xmlns="http://www.w3.org/2000/svg" version="1.1">
 <metadata>
  <rdf:RDF xmlns:dc="http://purl.org/dc/elements/1.1/" xmlns:cc="http://creativecommons.org/ns#" xmlns:rdf="http://www.w3.org/1999/02/22-rdf-syntax-ns#">
   <cc:Work>
    <dc:type rdf:resource="http://purl.org/dc/dcmitype/StillImage"/>
    <dc:format>image/svg+xml</dc:format>
    <dc:creator>
     <cc:Agent>
      <dc:title>Matplotlib v3.10.7, https://matplotlib.org/</dc:title>
     </cc:Agent>
    </dc:creator>
   </cc:Work>
  </rdf:RDF>
 </metadata>
 <defs>
  <style type="text/css">*{stroke-linejoin: round; stroke-linecap: butt}</style>
 </defs>
 <g id="figure_1">
  <g id="patch_1">
   <path d="M 0 492.401981 
L 625.155 492.401981 
L 625.155 0 
L 0 0 
z
" style="fill: #f8f5ef"/>
  </g>
  <g id="axes_1">
   <g id="patch_2">
    <path d="M 115.925 237.024 
L 617.955 237.024 
L 617.955 101.6 
L 115.925 101.6 
z
" style="fill: #fffdf8"/>
   </g>
   <g id="matplotlib.axis_1">
    <g id="xtick_1">
     <g id="line2d_1">
      <path d="M 199.284963 237.024 
L 199.284963 101.6 
" clip-path="url(#p2f58eb05db)" style="fill: none; stroke: #d9d4c7; stroke-opacity: 0.55; stroke-width: 0.7; stroke-linecap: square"/>
     </g>
     <g id="line2d_2">
      <defs>
       <path id="m3b3009f419" d="M 0 0 
L 0 3.5 
" style="stroke: #1f2933; stroke-width: 0.8"/>
      </defs>
      <g>
       <use xlink:href="#m3b3009f419" x="199.284963" y="237.024" style="fill: #1f2933; stroke: #1f2933; stroke-width: 0.8"/>
      </g>
     </g>
     <g id="text_1">
      <!-- −0.0010 -->
      <g style="fill: #1f2933" transform="translate(177.599807 251.622437) scale(0.1 -0.1)">
       <defs>
        <path id="DejaVuSerif-2212" d="M 678 2259 
L 4684 2259 
L 4684 1753 
L 678 1753 
L 678 2259 
z
" transform="scale(0.015625)"/>
        <path id="DejaVuSerif-30" d="M 2034 219 
Q 2513 219 2750 744 
Q 2988 1269 2988 2328 
Q 2988 3391 2750 3916 
Q 2513 4441 2034 4441 
Q 1556 4441 1318 3916 
Q 1081 3391 1081 2328 
Q 1081 1269 1318 744 
Q 1556 219 2034 219 
z
M 2034 -91 
Q 1275 -91 848 546 
Q 422 1184 422 2328 
Q 422 3475 848 4112 
Q 1275 4750 2034 4750 
Q 2797 4750 3222 4112 
Q 3647 3475 3647 2328 
Q 3647 1184 3222 546 
Q 2797 -91 2034 -91 
z
" transform="scale(0.015625)"/>
        <path id="DejaVuSerif-2e" d="M 603 325 
Q 603 500 722 622 
Q 841 744 1019 744 
Q 1191 744 1312 622 
Q 1434 500 1434 325 
Q 1434 153 1312 31 
Q 1191 -91 1019 -91 
Q 841 -91 722 29 
Q 603 150 603 325 
z
" transform="scale(0.015625)"/>
        <path id="DejaVuSerif-31" d="M 909 0 
L 909 331 
L 1722 331 
L 1722 4213 
L 781 3603 
L 781 4013 
L 1919 4750 
L 2350 4750 
L 2350 331 
L 3163 331 
L 3163 0 
L 909 0 
z
" transform="scale(0.015625)"/>
       </defs>
       <use xlink:href="#DejaVuSerif-2212"/>
       <use xlink:href="#DejaVuSerif-30" transform="translate(83.789062 0)"/>
       <use xlink:href="#DejaVuSerif-2e" transform="translate(147.412109 0)"/>
       <use xlink:href="#DejaVuSerif-30" transform="translate(179.199219 0)"/>
       <use xlink:href="#DejaVuSerif-30" transform="translate(242.822266 0)"/>
       <use xlink:href="#DejaVuSerif-31" transform="translate(306.445312 0)"/>
       <use xlink:href="#DejaVuSerif-30" transform="translate(370.068359 0)"/>
      </g>
     </g>
    </g>
    <g id="xtick_2">
     <g id="line2d_3">
      <path d="M 288.698594 237.024 
L 288.698594 101.6 
" clip-path="url(#p2f58eb05db)" style="fill: none; stroke: #d9d4c7; stroke-opacity: 0.55; stroke-width: 0.7; stroke-linecap: square"/>
     </g>
     <g id="line2d_4">
      <g>
       <use xlink:href="#m3b3009f419" x="288.698594" y="237.024" style="fill: #1f2933; stroke: #1f2933; stroke-width: 0.8"/>
      </g>
     </g>
     <g id="text_2">
      <!-- −0.0005 -->
      <g style="fill: #1f2933" transform="translate(267.013438 251.622437) scale(0.1 -0.1)">
       <defs>
        <path id="DejaVuSerif-35" d="M 3219 4666 
L 3219 4153 
L 1081 4153 
L 1081 2816 
Q 1244 2928 1461 2984 
Q 1678 3041 1947 3041 
Q 2703 3041 3140 2622 
Q 3578 2203 3578 1478 
Q 3578 738 3136 323 
Q 2694 -91 1894 -91 
Q 1572 -91 1234 -12 
Q 897 66 544 225 
L 544 1131 
L 897 1131 
Q 925 688 1179 453 
Q 1434 219 1894 219 
Q 2388 219 2653 544 
Q 2919 869 2919 1478 
Q 2919 2084 2655 2407 
Q 2391 2731 1894 2731 
Q 1613 2731 1398 2631 
Q 1184 2531 1019 2322 
L 750 2322 
L 750 4666 
L 3219 4666 
z
" transform="scale(0.015625)"/>
       </defs>
       <use xlink:href="#DejaVuSerif-2212"/>
       <use xlink:href="#DejaVuSerif-30" transform="translate(83.789062 0)"/>
       <use xlink:href="#DejaVuSerif-2e" transform="translate(147.412109 0)"/>
       <use xlink:href="#DejaVuSerif-30" transform="translate(179.199219 0)"/>
       <use xlink:href="#DejaVuSerif-30" transform="translate(242.822266 0)"/>
       <use xlink:href="#DejaVuSerif-30" transform="translate(306.445312 0)"/>
       <use xlink:href="#DejaVuSerif-35" transform="translate(370.068359 0)"/>
      </g>
     </g>
    </g>
    <g id="xtick_3">
     <g id="line2d_5">
      <path d="M 378.112224 237.024 
L 378.112224 101.6 
" clip-path="url(#p2f58eb05db)" style="fill: none; stroke: #d9d4c7; stroke-opacity: 0.55; stroke-width: 0.7; stroke-linecap: square"/>
     </g>
     <g id="line2d_6">
      <g>
       <use xlink:href="#m3b3009f419" x="378.112224" y="237.024" style="fill: #1f2933; stroke: #1f2933; stroke-width: 0.8"/>
      </g>
     </g>
     <g id="text_3">
      <!-- 0.0000 -->
      <g style="fill: #1f2933" transform="translate(360.616912 251.622437) scale(0.1 -0.1)">
       <use xlink:href="#DejaVuSerif-30"/>
       <use xlink:href="#DejaVuSerif-2e" transform="translate(63.623047 0)"/>
       <use xlink:href="#DejaVuSerif-30" transform="translate(95.410156 0)"/>
       <use xlink:href="#DejaVuSerif-30" transform="translate(159.033203 0)"/>
       <use xlink:href="#DejaVuSerif-30" transform="translate(222.65625 0)"/>
       <use xlink:href="#DejaVuSerif-30" transform="translate(286.279297 0)"/>
      </g>
     </g>
    </g>
    <g id="xtick_4">
     <g id="line2d_7">
      <path d="M 467.525855 237.024 
L 467.525855 101.6 
" clip-path="url(#p2f58eb05db)" style="fill: none; stroke: #d9d4c7; stroke-opacity: 0.55; stroke-width: 0.7; stroke-linecap: square"/>
     </g>
     <g id="line2d_8">
      <g>
       <use xlink:href="#m3b3009f419" x="467.525855" y="237.024" style="fill: #1f2933; stroke: #1f2933; stroke-width: 0.8"/>
      </g>
     </g>
     <g id="text_4">
      <!-- 0.0005 -->
      <g style="fill: #1f2933" transform="translate(450.030542 251.622437) scale(0.1 -0.1)">
       <use xlink:href="#DejaVuSerif-30"/>
       <use xlink:href="#DejaVuSerif-2e" transform="translate(63.623047 0)"/>
       <use xlink:href="#DejaVuSerif-30" transform="translate(95.410156 0)"/>
       <use xlink:href="#DejaVuSerif-30" transform="translate(159.033203 0)"/>
       <use xlink:href="#DejaVuSerif-30" transform="translate(222.65625 0)"/>
       <use xlink:href="#DejaVuSerif-35" transform="translate(286.279297 0)"/>
      </g>
     </g>
    </g>
    <g id="xtick_5">
     <g id="line2d_9">
      <path d="M 556.939486 237.024 
L 556.939486 101.6 
" clip-path="url(#p2f58eb05db)" style="fill: none; stroke: #d9d4c7; stroke-opacity: 0.55; stroke-width: 0.7; stroke-linecap: square"/>
     </g>
     <g id="line2d_10">
      <g>
       <use xlink:href="#m3b3009f419" x="556.939486" y="237.024" style="fill: #1f2933; stroke: #1f2933; stroke-width: 0.8"/>
      </g>
     </g>
     <g id="text_5">
      <!-- 0.0010 -->
      <g style="fill: #1f2933" transform="translate(539.444173 251.622437) scale(0.1 -0.1)">
       <use xlink:href="#DejaVuSerif-30"/>
       <use xlink:href="#DejaVuSerif-2e" transform="translate(63.623047 0)"/>
       <use xlink:href="#DejaVuSerif-30" transform="translate(95.410156 0)"/>
       <use xlink:href="#DejaVuSerif-30" transform="translate(159.033203 0)"/>
       <use xlink:href="#DejaVuSerif-31" transform="translate(222.65625 0)"/>
       <use xlink:href="#DejaVuSerif-30" transform="translate(286.279297 0)"/>
      </g>
     </g>
    </g>
   </g>
   <g id="matplotlib.axis_2">
    <g id="ytick_1">
     <g id="line2d_11"/>
     <g id="text_6">
      <!-- Solar PV adoption -->
      <g style="fill: #1f2933" transform="translate(20.84375 111.554855) scale(0.1 -0.1)">
       <defs>
        <path id="DejaVuSerif-53" d="M 594 225 
L 594 1288 
L 953 1284 
Q 969 753 1261 498 
Q 1553 244 2150 244 
Q 2706 244 2998 464 
Q 3291 684 3291 1106 
Q 3291 1444 3114 1625 
Q 2938 1806 2369 1978 
L 1753 2163 
Q 1084 2366 811 2669 
Q 538 2972 538 3500 
Q 538 4094 959 4422 
Q 1381 4750 2144 4750 
Q 2469 4750 2856 4679 
Q 3244 4609 3681 4475 
L 3681 3481 
L 3328 3481 
Q 3275 3975 2998 4195 
Q 2722 4416 2156 4416 
Q 1663 4416 1405 4214 
Q 1147 4013 1147 3628 
Q 1147 3294 1340 3103 
Q 1534 2913 2163 2725 
L 2741 2553 
Q 3375 2363 3645 2067 
Q 3916 1772 3916 1275 
Q 3916 597 3481 253 
Q 3047 -91 2188 -91 
Q 1803 -91 1404 -12 
Q 1006 66 594 225 
z
" transform="scale(0.015625)"/>
        <path id="DejaVuSerif-6f" d="M 1925 219 
Q 2388 219 2623 584 
Q 2859 950 2859 1663 
Q 2859 2375 2623 2739 
Q 2388 3103 1925 3103 
Q 1463 3103 1227 2739 
Q 991 2375 991 1663 
Q 991 950 1228 584 
Q 1466 219 1925 219 
z
M 1925 -91 
Q 1200 -91 759 389 
Q 319 869 319 1663 
Q 319 2456 758 2934 
Q 1197 3413 1925 3413 
Q 2653 3413 3092 2934 
Q 3531 2456 3531 1663 
Q 3531 869 3092 389 
Q 2653 -91 1925 -91 
z
" transform="scale(0.015625)"/>
        <path id="DejaVuSerif-6c" d="M 1313 331 
L 1856 331 
L 1856 0 
L 184 0 
L 184 331 
L 738 331 
L 738 4531 
L 184 4531 
L 184 4863 
L 1313 4863 
L 1313 331 
z
" transform="scale(0.015625)"/>
        <path id="DejaVuSerif-61" d="M 2547 1044 
L 2547 1747 
L 1806 1747 
Q 1378 1747 1168 1562 
Q 959 1378 959 997 
Q 959 650 1171 447 
Q 1384 244 1747 244 
Q 2106 244 2326 466 
Q 2547 688 2547 1044 
z
M 3122 2075 
L 3122 331 
L 3634 331 
L 3634 0 
L 2547 0 
L 2547 359 
Q 2356 128 2106 18 
Q 1856 -91 1522 -91 
Q 969 -91 644 203 
Q 319 497 319 997 
Q 319 1513 691 1797 
Q 1063 2081 1741 2081 
L 2547 2081 
L 2547 2309 
Q 2547 2688 2317 2895 
Q 2088 3103 1672 3103 
Q 1328 3103 1125 2947 
Q 922 2791 872 2484 
L 575 2484 
L 575 3156 
Q 875 3284 1158 3348 
Q 1441 3413 1709 3413 
Q 2400 3413 2761 3070 
Q 3122 2728 3122 2075 
z
" transform="scale(0.015625)"/>
        <path id="DejaVuSerif-72" d="M 3059 3328 
L 3059 2497 
L 2728 2497 
Q 2713 2744 2591 2866 
Q 2469 2988 2234 2988 
Q 1809 2988 1582 2694 
Q 1356 2400 1356 1850 
L 1356 331 
L 2022 331 
L 2022 0 
L 263 0 
L 263 331 
L 781 331 
L 781 2994 
L 231 2994 
L 231 3322 
L 1356 3322 
L 1356 2731 
Q 1525 3078 1790 3245 
Q 2056 3413 2438 3413 
Q 2578 3413 2733 3391 
Q 2888 3369 3059 3328 
z
" transform="scale(0.015625)"/>
        <path id="DejaVuSerif-20" transform="scale(0.015625)"/>
        <path id="DejaVuSerif-50" d="M 1581 2375 
L 2406 2375 
Q 2872 2375 3115 2626 
Q 3359 2878 3359 3353 
Q 3359 3831 3115 4081 
Q 2872 4331 2406 4331 
L 1581 4331 
L 1581 2375 
z
M 353 0 
L 353 331 
L 947 331 
L 947 4331 
L 353 4331 
L 353 4666 
L 2559 4666 
Q 3259 4666 3668 4311 
Q 4078 3956 4078 3353 
Q 4078 2753 3668 2397 
Q 3259 2041 2559 2041 
L 1581 2041 
L 1581 331 
L 2303 331 
L 2303 0 
L 353 0 
z
" transform="scale(0.015625)"/>
        <path id="DejaVuSerif-56" d="M 1119 4331 
L 2497 750 
L 3872 4331 
L 3347 4331 
L 3347 4666 
L 4716 4666 
L 4716 4331 
L 4263 4331 
L 2597 0 
L 2059 0 
L 403 4331 
L -63 4331 
L -63 4666 
L 1638 4666 
L 1638 4331 
L 1119 4331 
z
" transform="scale(0.015625)"/>
        <path id="DejaVuSerif-64" d="M 3359 331 
L 3909 331 
L 3909 0 
L 2784 0 
L 2784 519 
Q 2616 206 2355 57 
Q 2094 -91 1709 -91 
Q 1097 -91 708 395 
Q 319 881 319 1663 
Q 319 2444 706 2928 
Q 1094 3413 1709 3413 
Q 2094 3413 2355 3264 
Q 2616 3116 2784 2803 
L 2784 4531 
L 2241 4531 
L 2241 4863 
L 3359 4863 
L 3359 331 
z
M 2784 1497 
L 2784 1825 
Q 2784 2422 2554 2737 
Q 2325 3053 1888 3053 
Q 1444 3053 1217 2703 
Q 991 2353 991 1663 
Q 991 975 1217 622 
Q 1444 269 1888 269 
Q 2325 269 2554 583 
Q 2784 897 2784 1497 
z
" transform="scale(0.015625)"/>
        <path id="DejaVuSerif-70" d="M 1313 1825 
L 1313 1497 
Q 1313 897 1542 583 
Q 1772 269 2209 269 
Q 2650 269 2876 622 
Q 3103 975 3103 1663 
Q 3103 2353 2876 2703 
Q 2650 3053 2209 3053 
Q 1772 3053 1542 2737 
Q 1313 2422 1313 1825 
z
M 738 2988 
L 184 2988 
L 184 3322 
L 1313 3322 
L 1313 2803 
Q 1481 3116 1742 3264 
Q 2003 3413 2388 3413 
Q 3000 3413 3387 2928 
Q 3775 2444 3775 1663 
Q 3775 881 3387 395 
Q 3000 -91 2388 -91 
Q 2003 -91 1742 57 
Q 1481 206 1313 519 
L 1313 -997 
L 1856 -997 
L 1856 -1331 
L 184 -1331 
L 184 -997 
L 738 -997 
L 738 2988 
z
" transform="scale(0.015625)"/>
        <path id="DejaVuSerif-74" d="M 691 2988 
L 184 2988 
L 184 3322 
L 691 3322 
L 691 4353 
L 1269 4353 
L 1269 3322 
L 2350 3322 
L 2350 2988 
L 1269 2988 
L 1269 878 
Q 1269 456 1350 337 
Q 1431 219 1650 219 
Q 1875 219 1978 351 
Q 2081 484 2088 781 
L 2522 781 
Q 2497 328 2275 118 
Q 2053 -91 1600 -91 
Q 1103 -91 897 129 
Q 691 350 691 878 
L 691 2988 
z
" transform="scale(0.015625)"/>
        <path id="DejaVuSerif-69" d="M 622 4353 
Q 622 4497 726 4603 
Q 831 4709 978 4709 
Q 1122 4709 1226 4603 
Q 1331 4497 1331 4353 
Q 1331 4206 1228 4103 
Q 1125 4000 978 4000 
Q 831 4000 726 4103 
Q 622 4206 622 4353 
z
M 1356 331 
L 1900 331 
L 1900 0 
L 231 0 
L 231 331 
L 781 331 
L 781 2988 
L 231 2988 
L 231 3322 
L 1356 3322 
L 1356 331 
z
" transform="scale(0.015625)"/>
        <path id="DejaVuSerif-6e" d="M 263 0 
L 263 331 
L 781 331 
L 781 2988 
L 231 2988 
L 231 3322 
L 1356 3322 
L 1356 2731 
Q 1516 3069 1770 3241 
Q 2025 3413 2363 3413 
Q 2913 3413 3172 3097 
Q 3431 2781 3431 2113 
L 3431 331 
L 3944 331 
L 3944 0 
L 2356 0 
L 2356 331 
L 2853 331 
L 2853 1931 
Q 2853 2541 2703 2767 
Q 2553 2994 2175 2994 
Q 1775 2994 1565 2701 
Q 1356 2409 1356 1850 
L 1356 331 
L 1856 331 
L 1856 0 
L 263 0 
z
" transform="scale(0.015625)"/>
       </defs>
       <use xlink:href="#DejaVuSerif-53"/>
       <use xlink:href="#DejaVuSerif-6f" transform="translate(68.505859 0)"/>
       <use xlink:href="#DejaVuSerif-6c" transform="translate(128.710938 0)"/>
       <use xlink:href="#DejaVuSerif-61" transform="translate(160.693359 0)"/>
       <use xlink:href="#DejaVuSerif-72" transform="translate(220.3125 0)"/>
       <use xlink:href="#DejaVuSerif-20" transform="translate(268.115234 0)"/>
       <use xlink:href="#DejaVuSerif-50" transform="translate(299.902344 0)"/>
       <use xlink:href="#DejaVuSerif-56" transform="translate(367.1875 0)"/>
       <use xlink:href="#DejaVuSerif-20" transform="translate(439.404297 0)"/>
       <use xlink:href="#DejaVuSerif-61" transform="translate(471.191406 0)"/>
       <use xlink:href="#DejaVuSerif-64" transform="translate(530.810547 0)"/>
       <use xlink:href="#DejaVuSerif-6f" transform="translate(594.824219 0)"/>
       <use xlink:href="#DejaVuSerif-70" transform="translate(655.029297 0)"/>
       <use xlink:href="#DejaVuSerif-74" transform="translate(719.042969 0)"/>
       <use xlink:href="#DejaVuSerif-69" transform="translate(759.228516 0)"/>
       <use xlink:href="#DejaVuSerif-6f" transform="translate(791.210938 0)"/>
       <use xlink:href="#DejaVuSerif-6e" transform="translate(851.416016 0)"/>
      </g>
     </g>
    </g>
    <g id="ytick_2">
     <g id="line2d_12"/>
     <g id="text_7">
      <!-- Storage deployment -->
      <g style="fill: #1f2933" transform="translate(9.84375 173.111219) scale(0.1 -0.1)">
       <defs>
        <path id="DejaVuSerif-67" d="M 3359 2988 
L 3359 72 
Q 3359 -644 2965 -1033 
Q 2572 -1422 1844 -1422 
Q 1516 -1422 1216 -1362 
Q 916 -1303 641 -1184 
L 641 -488 
L 941 -488 
Q 997 -813 1206 -963 
Q 1416 -1113 1806 -1113 
Q 2313 -1113 2548 -827 
Q 2784 -541 2784 72 
L 2784 519 
Q 2616 206 2355 57 
Q 2094 -91 1709 -91 
Q 1097 -91 708 395 
Q 319 881 319 1663 
Q 319 2444 706 2928 
Q 1094 3413 1709 3413 
Q 2094 3413 2355 3264 
Q 2616 3116 2784 2803 
L 2784 3322 
L 3909 3322 
L 3909 2988 
L 3359 2988 
z
M 2784 1825 
Q 2784 2422 2554 2737 
Q 2325 3053 1888 3053 
Q 1444 3053 1217 2703 
Q 991 2353 991 1663 
Q 991 975 1217 622 
Q 1444 269 1888 269 
Q 2325 269 2554 583 
Q 2784 897 2784 1497 
L 2784 1825 
z
" transform="scale(0.015625)"/>
        <path id="DejaVuSerif-65" d="M 3469 1600 
L 991 1600 
L 991 1575 
Q 991 903 1244 561 
Q 1497 219 1991 219 
Q 2369 219 2611 417 
Q 2853 616 2950 1006 
L 3413 1006 
Q 3275 459 2904 184 
Q 2534 -91 1931 -91 
Q 1203 -91 761 389 
Q 319 869 319 1663 
Q 319 2450 753 2931 
Q 1188 3413 1894 3413 
Q 2647 3413 3050 2948 
Q 3453 2484 3469 1600 
z
M 2791 1931 
Q 2772 2513 2545 2808 
Q 2319 3103 1894 3103 
Q 1497 3103 1269 2806 
Q 1041 2509 991 1931 
L 2791 1931 
z
" transform="scale(0.015625)"/>
        <path id="DejaVuSerif-79" d="M 1381 -609 
L 1600 -56 
L 359 2988 
L -19 2988 
L -19 3322 
L 1509 3322 
L 1509 2988 
L 978 2988 
L 1913 703 
L 2847 2988 
L 2350 2988 
L 2350 3322 
L 3597 3322 
L 3597 2988 
L 3225 2988 
L 1703 -750 
Q 1547 -1138 1356 -1280 
Q 1166 -1422 819 -1422 
Q 672 -1422 517 -1397 
Q 363 -1372 206 -1325 
L 206 -691 
L 500 -691 
Q 519 -903 608 -995 
Q 697 -1088 884 -1088 
Q 1056 -1088 1161 -992 
Q 1266 -897 1381 -609 
z
" transform="scale(0.015625)"/>
        <path id="DejaVuSerif-6d" d="M 3316 2675 
Q 3481 3041 3739 3227 
Q 3997 3413 4341 3413 
Q 4863 3413 5119 3089 
Q 5375 2766 5375 2113 
L 5375 331 
L 5894 331 
L 5894 0 
L 4300 0 
L 4300 331 
L 4800 331 
L 4800 2047 
Q 4800 2556 4650 2772 
Q 4500 2988 4153 2988 
Q 3769 2988 3567 2697 
Q 3366 2406 3366 1850 
L 3366 331 
L 3866 331 
L 3866 0 
L 2291 0 
L 2291 331 
L 2791 331 
L 2791 2069 
Q 2791 2566 2641 2777 
Q 2491 2988 2144 2988 
Q 1759 2988 1557 2697 
Q 1356 2406 1356 1850 
L 1356 331 
L 1856 331 
L 1856 0 
L 263 0 
L 263 331 
L 781 331 
L 781 2994 
L 231 2994 
L 231 3322 
L 1356 3322 
L 1356 2731 
Q 1516 3063 1762 3238 
Q 2009 3413 2322 3413 
Q 2709 3413 2968 3220 
Q 3228 3028 3316 2675 
z
" transform="scale(0.015625)"/>
       </defs>
       <use xlink:href="#DejaVuSerif-53"/>
       <use xlink:href="#DejaVuSerif-74" transform="translate(68.505859 0)"/>
       <use xlink:href="#DejaVuSerif-6f" transform="translate(108.691406 0)"/>
       <use xlink:href="#DejaVuSerif-72" transform="translate(168.896484 0)"/>
       <use xlink:href="#DejaVuSerif-61" transform="translate(216.699219 0)"/>
       <use xlink:href="#DejaVuSerif-67" transform="translate(276.318359 0)"/>
       <use xlink:href="#DejaVuSerif-65" transform="translate(340.332031 0)"/>
       <use xlink:href="#DejaVuSerif-20" transform="translate(399.511719 0)"/>
       <use xlink:href="#DejaVuSerif-64" transform="translate(431.298828 0)"/>
       <use xlink:href="#DejaVuSerif-65" transform="translate(495.3125 0)"/>
       <use xlink:href="#DejaVuSerif-70" transform="translate(554.492188 0)"/>
       <use xlink:href="#DejaVuSerif-6c" transform="translate(618.505859 0)"/>
       <use xlink:href="#DejaVuSerif-6f" transform="translate(650.488281 0)"/>
       <use xlink:href="#DejaVuSerif-79" transform="translate(710.693359 0)"/>
       <use xlink:href="#DejaVuSerif-6d" transform="translate(767.1875 0)"/>
       <use xlink:href="#DejaVuSerif-65" transform="translate(862.011719 0)"/>
       <use xlink:href="#DejaVuSerif-6e" transform="translate(921.191406 0)"/>
       <use xlink:href="#DejaVuSerif-74" transform="translate(985.595703 0)"/>
      </g>
     </g>
    </g>
    <g id="ytick_3">
     <g id="line2d_13"/>
     <g id="text_8">
      <!-- EV charger adoption -->
      <g style="fill: #1f2933" transform="translate(7.2 234.667582) scale(0.1 -0.1)">
       <defs>
        <path id="DejaVuSerif-45" d="M 353 0 
L 353 331 
L 947 331 
L 947 4331 
L 353 4331 
L 353 4666 
L 4109 4666 
L 4109 3628 
L 3725 3628 
L 3725 4281 
L 1581 4281 
L 1581 2719 
L 3109 2719 
L 3109 3303 
L 3494 3303 
L 3494 1753 
L 3109 1753 
L 3109 2338 
L 1581 2338 
L 1581 384 
L 3775 384 
L 3775 1038 
L 4159 1038 
L 4159 0 
L 353 0 
z
" transform="scale(0.015625)"/>
        <path id="DejaVuSerif-63" d="M 3291 997 
Q 3169 466 2822 187 
Q 2475 -91 1925 -91 
Q 1200 -91 759 389 
Q 319 869 319 1663 
Q 319 2459 759 2936 
Q 1200 3413 1925 3413 
Q 2241 3413 2553 3339 
Q 2866 3266 3181 3116 
L 3181 2266 
L 2847 2266 
Q 2781 2703 2561 2903 
Q 2341 3103 1931 3103 
Q 1466 3103 1228 2742 
Q 991 2381 991 1663 
Q 991 944 1227 581 
Q 1463 219 1931 219 
Q 2303 219 2525 412 
Q 2747 606 2828 997 
L 3291 997 
z
" transform="scale(0.015625)"/>
        <path id="DejaVuSerif-68" d="M 263 0 
L 263 331 
L 781 331 
L 781 4531 
L 231 4531 
L 231 4863 
L 1356 4863 
L 1356 2731 
Q 1516 3069 1770 3241 
Q 2025 3413 2363 3413 
Q 2913 3413 3172 3097 
Q 3431 2781 3431 2113 
L 3431 331 
L 3944 331 
L 3944 0 
L 2356 0 
L 2356 331 
L 2853 331 
L 2853 1931 
Q 2853 2541 2704 2764 
Q 2556 2988 2175 2988 
Q 1775 2988 1565 2697 
Q 1356 2406 1356 1850 
L 1356 331 
L 1856 331 
L 1856 0 
L 263 0 
z
" transform="scale(0.015625)"/>
       </defs>
       <use xlink:href="#DejaVuSerif-45"/>
       <use xlink:href="#DejaVuSerif-56" transform="translate(72.998047 0)"/>
       <use xlink:href="#DejaVuSerif-20" transform="translate(145.214844 0)"/>
       <use xlink:href="#DejaVuSerif-63" transform="translate(177.001953 0)"/>
       <use xlink:href="#DejaVuSerif-68" transform="translate(233.007812 0)"/>
       <use xlink:href="#DejaVuSerif-61" transform="translate(297.412109 0)"/>
       <use xlink:href="#DejaVuSerif-72" transform="translate(357.03125 0)"/>
       <use xlink:href="#DejaVuSerif-67" transform="translate(404.833984 0)"/>
       <use xlink:href="#DejaVuSerif-65" transform="translate(468.847656 0)"/>
       <use xlink:href="#DejaVuSerif-72" transform="translate(528.027344 0)"/>
       <use xlink:href="#DejaVuSerif-20" transform="translate(575.830078 0)"/>
       <use xlink:href="#DejaVuSerif-61" transform="translate(607.617188 0)"/>
       <use xlink:href="#DejaVuSerif-64" transform="translate(667.236328 0)"/>
       <use xlink:href="#DejaVuSerif-6f" transform="translate(731.25 0)"/>
       <use xlink:href="#DejaVuSerif-70" transform="translate(791.455078 0)"/>
       <use xlink:href="#DejaVuSerif-74" transform="translate(855.46875 0)"/>
       <use xlink:href="#DejaVuSerif-69" transform="translate(895.654297 0)"/>
       <use xlink:href="#DejaVuSerif-6f" transform="translate(927.636719 0)"/>
       <use xlink:href="#DejaVuSerif-6e" transform="translate(987.841797 0)"/>
      </g>
     </g>
    </g>
   </g>
   <g id="LineCollection_1">
    <path d="M 357.262369 107.755636 
L 557.102879 107.755636 
" clip-path="url(#p2f58eb05db)" style="fill: none; stroke: #8c6d1f; stroke-opacity: 0.95; stroke-width: 2.7"/>
   </g>
   <g id="LineCollection_2">
    <path d="M 256.335333 169.312 
L 451.153813 169.312 
" clip-path="url(#p2f58eb05db)" style="fill: none; stroke: #cc79a7; stroke-opacity: 0.95; stroke-width: 2.7"/>
   </g>
   <g id="LineCollection_3">
    <path d="M 176.777121 230.868364 
L 299.85216 230.868364 
" clip-path="url(#p2f58eb05db)" style="fill: none; stroke: #008b8b; stroke-opacity: 0.95; stroke-width: 2.7"/>
   </g>
   <g id="line2d_14">
    <path d="M 378.112224 237.024 
L 378.112224 101.6 
" clip-path="url(#p2f58eb05db)" style="fill: none; stroke-dasharray: 4.44,1.92; stroke-dashoffset: 0; stroke: #52606d; stroke-opacity: 0.9; stroke-width: 1.2"/>
   </g>
   <g id="patch_3">
    <path d="M 115.925 237.024 
L 617.955 237.024 
" style="fill: none; stroke: #d9d4c7; stroke-width: 0.8; stroke-linejoin: miter; stroke-linecap: square"/>
   </g>
   <g id="line2d_15">
    <defs>
     <path id="m81c4afa901" d="M 0 4 
C 1.060812 4 2.078319 3.578535 2.828427 2.828427 
C 3.578535 2.078319 4 1.060812 4 0 
C 4 -1.060812 3.578535 -2.078319 2.828427 -2.828427 
C 2.078319 -3.578535 1.060812 -4 0 -4 
C -1.060812 -4 -2.078319 -3.578535 -2.828427 -2.828427 
C -3.578535 -2.078319 -4 -1.060812 -4 0 
C -4 1.060812 -3.578535 2.078319 -2.828427 2.828427 
C -2.078319 3.578535 -1.060812 4 0 4 
z
" style="stroke: #ffffff; stroke-width: 0.9"/>
    </defs>
    <g clip-path="url(#p2f58eb05db)">
     <use xlink:href="#m81c4afa901" x="457.182624" y="107.755636" style="fill: #8c6d1f; stroke: #ffffff; stroke-width: 0.9"/>
    </g>
   </g>
   <g id="line2d_16">
    <defs>
     <path id="m0864454458" d="M 0 4 
C 1.060812 4 2.078319 3.578535 2.828427 2.828427 
C 3.578535 2.078319 4 1.060812 4 0 
C 4 -1.060812 3.578535 -2.078319 2.828427 -2.828427 
C 2.078319 -3.578535 1.060812 -4 0 -4 
C -1.060812 -4 -2.078319 -3.578535 -2.828427 -2.828427 
C -3.578535 -2.078319 -4 -1.060812 -4 0 
C -4 1.060812 -3.578535 2.078319 -2.828427 2.828427 
C -2.078319 3.578535 -1.060812 4 0 4 
z
" style="stroke: #ffffff; stroke-width: 0.9"/>
    </defs>
    <g clip-path="url(#p2f58eb05db)">
     <use xlink:href="#m0864454458" x="353.744573" y="169.312" style="fill: #cc79a7; stroke: #ffffff; stroke-width: 0.9"/>
    </g>
   </g>
   <g id="line2d_17">
    <defs>
     <path id="m51021812ff" d="M 0 4 
C 1.060812 4 2.078319 3.578535 2.828427 2.828427 
C 3.578535 2.078319 4 1.060812 4 0 
C 4 -1.060812 3.578535 -2.078319 2.828427 -2.828427 
C 2.078319 -3.578535 1.060812 -4 0 -4 
C -1.060812 -4 -2.078319 -3.578535 -2.828427 -2.828427 
C -3.578535 -2.078319 -4 -1.060812 -4 0 
C -4 1.060812 -3.578535 2.078319 -2.828427 2.828427 
C -2.078319 3.578535 -1.060812 4 0 4 
z
" style="stroke: #ffffff; stroke-width: 0.9"/>
    </defs>
    <g clip-path="url(#p2f58eb05db)">
     <use xlink:href="#m51021812ff" x="238.314641" y="230.868364" style="fill: #008b8b; stroke: #ffffff; stroke-width: 0.9"/>
    </g>
   </g>
   <g id="text_9">
    <!-- *** -->
    <g style="fill: #1f2933" transform="translate(309.698163 233.627739) scale(0.1 -0.1)">
     <defs>
      <path id="DejaVuSerif-Bold-2a" d="M 3206 3788 
L 2081 3263 
L 3206 2731 
L 2900 2247 
L 1875 2994 
L 1959 1778 
L 1388 1778 
L 1472 2994 
L 447 2247 
L 141 2731 
L 1269 3263 
L 141 3788 
L 447 4281 
L 1472 3525 
L 1388 4750 
L 1959 4750 
L 1875 3525 
L 2900 4281 
L 3206 3788 
z
" transform="scale(0.015625)"/>
     </defs>
     <use xlink:href="#DejaVuSerif-Bold-2a"/>
     <use xlink:href="#DejaVuSerif-Bold-2a" transform="translate(52.294922 0)"/>
     <use xlink:href="#DejaVuSerif-Bold-2a" transform="translate(104.589844 0)"/>
    </g>
   </g>
   <g id="text_10">
    <!-- Energy burden -->
    <g style="fill: #1f2933" transform="translate(115.925 93.6) scale(0.14 -0.14)">
     <defs>
      <path id="DejaVuSerif-Bold-45" d="M 300 0 
L 300 378 
L 897 378 
L 897 4288 
L 300 4288 
L 300 4666 
L 4494 4666 
L 4494 3566 
L 4063 3566 
L 4063 4238 
L 2100 4238 
L 2100 2741 
L 3322 2741 
L 3322 3334 
L 3750 3334 
L 3750 1722 
L 3322 1722 
L 3322 2316 
L 2100 2316 
L 2100 428 
L 4122 428 
L 4122 1100 
L 4550 1100 
L 4550 0 
L 300 0 
z
" transform="scale(0.015625)"/>
      <path id="DejaVuSerif-Bold-6e" d="M 219 0 
L 219 378 
L 691 378 
L 691 2944 
L 219 2944 
L 219 3322 
L 1797 3322 
L 1797 2853 
Q 1997 3150 2253 3281 
Q 2509 3413 2900 3413 
Q 3459 3413 3745 3083 
Q 4031 2753 4031 2113 
L 4031 378 
L 4506 378 
L 4506 0 
L 2522 0 
L 2522 378 
L 2925 378 
L 2925 2144 
Q 2925 2566 2817 2730 
Q 2709 2894 2444 2894 
Q 2109 2894 1953 2648 
Q 1797 2403 1797 1869 
L 1797 378 
L 2203 378 
L 2203 0 
L 219 0 
z
" transform="scale(0.015625)"/>
      <path id="DejaVuSerif-Bold-65" d="M 2566 1875 
Q 2566 2531 2444 2795 
Q 2322 3059 2028 3059 
Q 1744 3059 1620 2800 
Q 1497 2541 1497 1931 
L 1497 1875 
L 2566 1875 
z
M 3781 1503 
L 1497 1503 
L 1497 1478 
Q 1497 834 1690 548 
Q 1884 263 2316 263 
Q 2675 263 2897 453 
Q 3119 644 3181 1006 
L 3700 1006 
Q 3566 441 3166 175 
Q 2766 -91 2047 -91 
Q 1184 -91 723 364 
Q 263 819 263 1663 
Q 263 2488 734 2950 
Q 1206 3413 2047 3413 
Q 2872 3413 3312 2927 
Q 3753 2441 3781 1503 
z
" transform="scale(0.015625)"/>
      <path id="DejaVuSerif-Bold-72" d="M 3438 3359 
L 3438 2369 
L 3084 2369 
Q 3066 2634 2941 2764 
Q 2816 2894 2578 2894 
Q 2216 2894 2006 2575 
Q 1797 2256 1797 1691 
L 1797 378 
L 2400 378 
L 2400 0 
L 219 0 
L 219 378 
L 691 378 
L 691 2944 
L 184 2944 
L 184 3322 
L 1797 3322 
L 1797 2731 
Q 1959 3078 2226 3245 
Q 2494 3413 2881 3413 
Q 2978 3413 3117 3398 
Q 3256 3384 3438 3359 
z
" transform="scale(0.015625)"/>
      <path id="DejaVuSerif-Bold-67" d="M 3853 2944 
L 3853 44 
Q 3853 -656 3354 -1039 
Q 2856 -1422 1947 -1422 
Q 1616 -1422 1275 -1370 
Q 934 -1319 575 -1216 
L 575 -422 
L 928 -422 
Q 975 -750 1192 -909 
Q 1409 -1069 1813 -1069 
Q 2325 -1069 2536 -823 
Q 2747 -578 2747 44 
L 2747 422 
Q 2606 163 2367 36 
Q 2128 -91 1778 -91 
Q 1072 -91 667 378 
Q 263 847 263 1663 
Q 263 2481 667 2947 
Q 1072 3413 1778 3413 
Q 2128 3413 2367 3286 
Q 2606 3159 2747 2900 
L 2747 3322 
L 4325 3322 
L 4325 2944 
L 3853 2944 
z
M 2747 1825 
Q 2747 2406 2597 2665 
Q 2447 2925 2119 2925 
Q 1775 2925 1636 2651 
Q 1497 2378 1497 1663 
Q 1497 947 1637 672 
Q 1778 397 2119 397 
Q 2447 397 2597 656 
Q 2747 916 2747 1497 
L 2747 1825 
z
" transform="scale(0.015625)"/>
      <path id="DejaVuSerif-Bold-79" d="M 1997 -750 
Q 1847 -1116 1634 -1269 
Q 1422 -1422 1063 -1422 
Q 909 -1422 721 -1387 
Q 534 -1353 313 -1288 
L 313 -594 
L 666 -597 
Q 675 -838 779 -953 
Q 884 -1069 1094 -1069 
Q 1297 -1069 1422 -958 
Q 1547 -847 1672 -538 
L 1722 -422 
L 275 2944 
L -84 2944 
L -84 3322 
L 1831 3322 
L 1831 2944 
L 1434 2944 
L 2278 978 
L 3066 2944 
L 2625 2944 
L 2625 3322 
L 3872 3322 
L 3872 2944 
L 3469 2944 
L 1997 -750 
z
" transform="scale(0.015625)"/>
      <path id="DejaVuSerif-Bold-20" transform="scale(0.015625)"/>
      <path id="DejaVuSerif-Bold-62" d="M 622 378 
L 622 4488 
L 147 4488 
L 147 4863 
L 1728 4863 
L 1728 2900 
Q 1869 3159 2106 3286 
Q 2344 3413 2694 3413 
Q 3403 3413 3811 2945 
Q 4219 2478 4219 1663 
Q 4219 847 3811 378 
Q 3403 -91 2694 -91 
Q 2344 -91 2106 36 
Q 1869 163 1728 422 
L 1728 0 
L 147 0 
L 147 378 
L 622 378 
z
M 1728 1497 
Q 1728 916 1876 656 
Q 2025 397 2356 397 
Q 2697 397 2836 672 
Q 2975 947 2975 1663 
Q 2975 2378 2836 2651 
Q 2697 2925 2356 2925 
Q 2025 2925 1876 2665 
Q 1728 2406 1728 1825 
L 1728 1497 
z
" transform="scale(0.015625)"/>
      <path id="DejaVuSerif-Bold-75" d="M 3963 3322 
L 3963 378 
L 4434 378 
L 4434 0 
L 2853 0 
L 2853 469 
Q 2656 172 2400 40 
Q 2144 -91 1753 -91 
Q 1194 -91 908 239 
Q 622 569 622 1209 
L 622 2944 
L 147 2944 
L 147 3322 
L 1728 3322 
L 1728 1381 
Q 1728 763 1831 595 
Q 1934 428 2209 428 
Q 2544 428 2698 675 
Q 2853 922 2853 1459 
L 2853 2944 
L 2450 2944 
L 2450 3322 
L 3963 3322 
z
" transform="scale(0.015625)"/>
      <path id="DejaVuSerif-Bold-64" d="M 2747 1497 
L 2747 1825 
Q 2747 2406 2597 2665 
Q 2447 2925 2119 2925 
Q 1775 2925 1636 2651 
Q 1497 2378 1497 1663 
Q 1497 947 1637 672 
Q 1778 397 2119 397 
Q 2447 397 2597 656 
Q 2747 916 2747 1497 
z
M 3853 378 
L 4325 378 
L 4325 0 
L 2747 0 
L 2747 422 
Q 2606 163 2367 36 
Q 2128 -91 1778 -91 
Q 1072 -91 667 378 
Q 263 847 263 1663 
Q 263 2481 667 2947 
Q 1072 3413 1778 3413 
Q 2128 3413 2367 3286 
Q 2606 3159 2747 2900 
L 2747 4488 
L 2272 4488 
L 2272 4863 
L 3853 4863 
L 3853 378 
z
" transform="scale(0.015625)"/>
     </defs>
     <use xlink:href="#DejaVuSerif-Bold-45"/>
     <use xlink:href="#DejaVuSerif-Bold-6e" transform="translate(76.220703 0)"/>
     <use xlink:href="#DejaVuSerif-Bold-65" transform="translate(148.925781 0)"/>
     <use xlink:href="#DejaVuSerif-Bold-72" transform="translate(212.548828 0)"/>
     <use xlink:href="#DejaVuSerif-Bold-67" transform="translate(265.234375 0)"/>
     <use xlink:href="#DejaVuSerif-Bold-79" transform="translate(335.15625 0)"/>
     <use xlink:href="#DejaVuSerif-Bold-20" transform="translate(393.261719 0)"/>
     <use xlink:href="#DejaVuSerif-Bold-62" transform="translate(428.076172 0)"/>
     <use xlink:href="#DejaVuSerif-Bold-75" transform="translate(497.998047 0)"/>
     <use xlink:href="#DejaVuSerif-Bold-72" transform="translate(570.703125 0)"/>
     <use xlink:href="#DejaVuSerif-Bold-64" transform="translate(623.388672 0)"/>
     <use xlink:href="#DejaVuSerif-Bold-65" transform="translate(693.310547 0)"/>
     <use xlink:href="#DejaVuSerif-Bold-6e" transform="translate(756.933594 0)"/>
    </g>
   </g>
  </g>
  <g id="axes_2">
   <g id="patch_4">
    <path d="M 115.925 419.488 
L 617.955 419.488 
L 617.955 284.064 
L 115.925 284.064 
z
" style="fill: #fffdf8"/>
   </g>
   <g id="matplotlib.axis_3">
    <g id="xtick_6">
     <g id="line2d_18">
      <path d="M 164.531862 419.488 
L 164.531862 284.064 
" clip-path="url(#p2ce8bb2836)" style="fill: none; stroke: #d9d4c7; stroke-opacity: 0.55; stroke-width: 0.7; stroke-linecap: square"/>
     </g>
     <g id="line2d_19">
      <g>
       <use xlink:href="#m3b3009f419" x="164.531862" y="419.488" style="fill: #1f2933; stroke: #1f2933; stroke-width: 0.8"/>
      </g>
     </g>
     <g id="text_11">
      <!-- −0.4 -->
      <g style="fill: #1f2933" transform="translate(152.390456 434.086437) scale(0.1 -0.1)">
       <defs>
        <path id="DejaVuSerif-34" d="M 2234 1581 
L 2234 4063 
L 641 1581 
L 2234 1581 
z
M 3609 0 
L 1484 0 
L 1484 331 
L 2234 331 
L 2234 1247 
L 197 1247 
L 197 1588 
L 2241 4750 
L 2859 4750 
L 2859 1581 
L 3750 1581 
L 3750 1247 
L 2859 1247 
L 2859 331 
L 3609 331 
L 3609 0 
z
" transform="scale(0.015625)"/>
       </defs>
       <use xlink:href="#DejaVuSerif-2212"/>
       <use xlink:href="#DejaVuSerif-30" transform="translate(83.789062 0)"/>
       <use xlink:href="#DejaVuSerif-2e" transform="translate(147.412109 0)"/>
       <use xlink:href="#DejaVuSerif-34" transform="translate(179.199219 0)"/>
      </g>
     </g>
    </g>
    <g id="xtick_7">
     <g id="line2d_20">
      <path d="M 226.239824 419.488 
L 226.239824 284.064 
" clip-path="url(#p2ce8bb2836)" style="fill: none; stroke: #d9d4c7; stroke-opacity: 0.55; stroke-width: 0.7; stroke-linecap: square"/>
     </g>
     <g id="line2d_21">
      <g>
       <use xlink:href="#m3b3009f419" x="226.239824" y="419.488" style="fill: #1f2933; stroke: #1f2933; stroke-width: 0.8"/>
      </g>
     </g>
     <g id="text_12">
      <!-- −0.2 -->
      <g style="fill: #1f2933" transform="translate(214.098418 434.086437) scale(0.1 -0.1)">
       <defs>
        <path id="DejaVuSerif-32" d="M 819 3553 
L 469 3553 
L 469 4384 
Q 803 4563 1142 4656 
Q 1481 4750 1806 4750 
Q 2534 4750 2956 4397 
Q 3378 4044 3378 3438 
Q 3378 2753 2422 1800 
Q 2347 1728 2309 1691 
L 1131 513 
L 3078 513 
L 3078 1088 
L 3444 1088 
L 3444 0 
L 434 0 
L 434 341 
L 1850 1753 
Q 2319 2222 2519 2614 
Q 2719 3006 2719 3438 
Q 2719 3909 2473 4175 
Q 2228 4441 1797 4441 
Q 1350 4441 1106 4219 
Q 863 3997 819 3553 
z
" transform="scale(0.015625)"/>
       </defs>
       <use xlink:href="#DejaVuSerif-2212"/>
       <use xlink:href="#DejaVuSerif-30" transform="translate(83.789062 0)"/>
       <use xlink:href="#DejaVuSerif-2e" transform="translate(147.412109 0)"/>
       <use xlink:href="#DejaVuSerif-32" transform="translate(179.199219 0)"/>
      </g>
     </g>
    </g>
    <g id="xtick_8">
     <g id="line2d_22">
      <path d="M 287.947786 419.488 
L 287.947786 284.064 
" clip-path="url(#p2ce8bb2836)" style="fill: none; stroke: #d9d4c7; stroke-opacity: 0.55; stroke-width: 0.7; stroke-linecap: square"/>
     </g>
     <g id="line2d_23">
      <g>
       <use xlink:href="#m3b3009f419" x="287.947786" y="419.488" style="fill: #1f2933; stroke: #1f2933; stroke-width: 0.8"/>
      </g>
     </g>
     <g id="text_13">
      <!-- 0.0 -->
      <g style="fill: #1f2933" transform="translate(279.996224 434.086437) scale(0.1 -0.1)">
       <use xlink:href="#DejaVuSerif-30"/>
       <use xlink:href="#DejaVuSerif-2e" transform="translate(63.623047 0)"/>
       <use xlink:href="#DejaVuSerif-30" transform="translate(95.410156 0)"/>
      </g>
     </g>
    </g>
    <g id="xtick_9">
     <g id="line2d_24">
      <path d="M 349.655748 419.488 
L 349.655748 284.064 
" clip-path="url(#p2ce8bb2836)" style="fill: none; stroke: #d9d4c7; stroke-opacity: 0.55; stroke-width: 0.7; stroke-linecap: square"/>
     </g>
     <g id="line2d_25">
      <g>
       <use xlink:href="#m3b3009f419" x="349.655748" y="419.488" style="fill: #1f2933; stroke: #1f2933; stroke-width: 0.8"/>
      </g>
     </g>
     <g id="text_14">
      <!-- 0.2 -->
      <g style="fill: #1f2933" transform="translate(341.704186 434.086437) scale(0.1 -0.1)">
       <use xlink:href="#DejaVuSerif-30"/>
       <use xlink:href="#DejaVuSerif-2e" transform="translate(63.623047 0)"/>
       <use xlink:href="#DejaVuSerif-32" transform="translate(95.410156 0)"/>
      </g>
     </g>
    </g>
    <g id="xtick_10">
     <g id="line2d_26">
      <path d="M 411.36371 419.488 
L 411.36371 284.064 
" clip-path="url(#p2ce8bb2836)" style="fill: none; stroke: #d9d4c7; stroke-opacity: 0.55; stroke-width: 0.7; stroke-linecap: square"/>
     </g>
     <g id="line2d_27">
      <g>
       <use xlink:href="#m3b3009f419" x="411.36371" y="419.488" style="fill: #1f2933; stroke: #1f2933; stroke-width: 0.8"/>
      </g>
     </g>
     <g id="text_15">
      <!-- 0.4 -->
      <g style="fill: #1f2933" transform="translate(403.412148 434.086437) scale(0.1 -0.1)">
       <use xlink:href="#DejaVuSerif-30"/>
       <use xlink:href="#DejaVuSerif-2e" transform="translate(63.623047 0)"/>
       <use xlink:href="#DejaVuSerif-34" transform="translate(95.410156 0)"/>
      </g>
     </g>
    </g>
    <g id="xtick_11">
     <g id="line2d_28">
      <path d="M 473.071672 419.488 
L 473.071672 284.064 
" clip-path="url(#p2ce8bb2836)" style="fill: none; stroke: #d9d4c7; stroke-opacity: 0.55; stroke-width: 0.7; stroke-linecap: square"/>
     </g>
     <g id="line2d_29">
      <g>
       <use xlink:href="#m3b3009f419" x="473.071672" y="419.488" style="fill: #1f2933; stroke: #1f2933; stroke-width: 0.8"/>
      </g>
     </g>
     <g id="text_16">
      <!-- 0.6 -->
      <g style="fill: #1f2933" transform="translate(465.12011 434.086437) scale(0.1 -0.1)">
       <defs>
        <path id="DejaVuSerif-36" d="M 2094 219 
Q 2534 219 2771 542 
Q 3009 866 3009 1472 
Q 3009 2078 2771 2401 
Q 2534 2725 2094 2725 
Q 1647 2725 1412 2412 
Q 1178 2100 1178 1509 
Q 1178 888 1415 553 
Q 1653 219 2094 219 
z
M 1075 2569 
Q 1288 2803 1556 2918 
Q 1825 3034 2163 3034 
Q 2859 3034 3264 2615 
Q 3669 2197 3669 1472 
Q 3669 763 3233 336 
Q 2797 -91 2069 -91 
Q 1278 -91 853 498 
Q 428 1088 428 2181 
Q 428 3406 931 4078 
Q 1434 4750 2350 4750 
Q 2597 4750 2869 4703 
Q 3141 4656 3425 4563 
L 3425 3794 
L 3072 3794 
Q 3034 4109 2831 4275 
Q 2628 4441 2284 4441 
Q 1678 4441 1381 3981 
Q 1084 3522 1075 2569 
z
" transform="scale(0.015625)"/>
       </defs>
       <use xlink:href="#DejaVuSerif-30"/>
       <use xlink:href="#DejaVuSerif-2e" transform="translate(63.623047 0)"/>
       <use xlink:href="#DejaVuSerif-36" transform="translate(95.410156 0)"/>
      </g>
     </g>
    </g>
    <g id="xtick_12">
     <g id="line2d_30">
      <path d="M 534.779634 419.488 
L 534.779634 284.064 
" clip-path="url(#p2ce8bb2836)" style="fill: none; stroke: #d9d4c7; stroke-opacity: 0.55; stroke-width: 0.7; stroke-linecap: square"/>
     </g>
     <g id="line2d_31">
      <g>
       <use xlink:href="#m3b3009f419" x="534.779634" y="419.488" style="fill: #1f2933; stroke: #1f2933; stroke-width: 0.8"/>
      </g>
     </g>
     <g id="text_17">
      <!-- 0.8 -->
      <g style="fill: #1f2933" transform="translate(526.828072 434.086437) scale(0.1 -0.1)">
       <defs>
        <path id="DejaVuSerif-38" d="M 2981 1275 
Q 2981 1775 2732 2051 
Q 2484 2328 2034 2328 
Q 1584 2328 1336 2051 
Q 1088 1775 1088 1275 
Q 1088 772 1336 495 
Q 1584 219 2034 219 
Q 2484 219 2732 495 
Q 2981 772 2981 1275 
z
M 2853 3541 
Q 2853 3966 2637 4203 
Q 2422 4441 2034 4441 
Q 1650 4441 1433 4203 
Q 1216 3966 1216 3541 
Q 1216 3113 1433 2875 
Q 1650 2638 2034 2638 
Q 2422 2638 2637 2875 
Q 2853 3113 2853 3541 
z
M 2516 2484 
Q 3047 2413 3344 2092 
Q 3641 1772 3641 1275 
Q 3641 619 3225 264 
Q 2809 -91 2034 -91 
Q 1263 -91 845 264 
Q 428 619 428 1275 
Q 428 1772 725 2092 
Q 1022 2413 1556 2484 
Q 1084 2569 832 2842 
Q 581 3116 581 3541 
Q 581 4103 968 4426 
Q 1356 4750 2034 4750 
Q 2713 4750 3100 4426 
Q 3488 4103 3488 3541 
Q 3488 3116 3236 2842 
Q 2984 2569 2516 2484 
z
" transform="scale(0.015625)"/>
       </defs>
       <use xlink:href="#DejaVuSerif-30"/>
       <use xlink:href="#DejaVuSerif-2e" transform="translate(63.623047 0)"/>
       <use xlink:href="#DejaVuSerif-38" transform="translate(95.410156 0)"/>
      </g>
     </g>
    </g>
    <g id="xtick_13">
     <g id="line2d_32">
      <path d="M 596.487596 419.488 
L 596.487596 284.064 
" clip-path="url(#p2ce8bb2836)" style="fill: none; stroke: #d9d4c7; stroke-opacity: 0.55; stroke-width: 0.7; stroke-linecap: square"/>
     </g>
     <g id="line2d_33">
      <g>
       <use xlink:href="#m3b3009f419" x="596.487596" y="419.488" style="fill: #1f2933; stroke: #1f2933; stroke-width: 0.8"/>
      </g>
     </g>
     <g id="text_18">
      <!-- 1.0 -->
      <g style="fill: #1f2933" transform="translate(588.536034 434.086437) scale(0.1 -0.1)">
       <use xlink:href="#DejaVuSerif-31"/>
       <use xlink:href="#DejaVuSerif-2e" transform="translate(63.623047 0)"/>
       <use xlink:href="#DejaVuSerif-30" transform="translate(95.410156 0)"/>
      </g>
     </g>
    </g>
    <g id="text_19">
     <!-- Coefficient estimate -->
     <g style="fill: #1f2933" transform="translate(310.731719 448.524406) scale(0.11 -0.11)">
      <defs>
       <path id="DejaVuSerif-43" d="M 4513 1234 
Q 4306 581 3820 245 
Q 3334 -91 2591 -91 
Q 2134 -91 1743 65 
Q 1353 222 1050 525 
Q 700 875 529 1320 
Q 359 1766 359 2328 
Q 359 3416 987 4083 
Q 1616 4750 2644 4750 
Q 3025 4750 3456 4650 
Q 3888 4550 4384 4347 
L 4384 3272 
L 4031 3272 
Q 3916 3859 3567 4137 
Q 3219 4416 2591 4416 
Q 1844 4416 1459 3886 
Q 1075 3356 1075 2328 
Q 1075 1303 1459 773 
Q 1844 244 2591 244 
Q 3113 244 3450 492 
Q 3788 741 3938 1234 
L 4513 1234 
z
" transform="scale(0.015625)"/>
       <path id="DejaVuSerif-66" d="M 2753 4078 
L 2450 4078 
Q 2447 4313 2317 4434 
Q 2188 4556 1941 4556 
Q 1619 4556 1487 4379 
Q 1356 4203 1356 3750 
L 1356 3322 
L 2284 3322 
L 2284 2988 
L 1356 2988 
L 1356 331 
L 2094 331 
L 2094 0 
L 231 0 
L 231 331 
L 781 331 
L 781 2988 
L 231 2988 
L 231 3322 
L 781 3322 
L 781 3738 
Q 781 4294 1070 4578 
Q 1359 4863 1919 4863 
Q 2128 4863 2337 4825 
Q 2547 4788 2753 4709 
L 2753 4078 
z
" transform="scale(0.015625)"/>
       <path id="DejaVuSerif-73" d="M 359 184 
L 359 959 
L 691 959 
Q 703 588 923 403 
Q 1144 219 1575 219 
Q 1963 219 2166 364 
Q 2369 509 2369 788 
Q 2369 1006 2220 1140 
Q 2072 1275 1594 1428 
L 1178 1569 
Q 750 1706 558 1912 
Q 366 2119 366 2438 
Q 366 2894 700 3153 
Q 1034 3413 1625 3413 
Q 1888 3413 2178 3344 
Q 2469 3275 2778 3144 
L 2778 2419 
L 2447 2419 
Q 2434 2741 2221 2922 
Q 2009 3103 1644 3103 
Q 1281 3103 1095 2975 
Q 909 2847 909 2591 
Q 909 2381 1050 2254 
Q 1191 2128 1613 1997 
L 2069 1856 
Q 2541 1709 2748 1489 
Q 2956 1269 2956 922 
Q 2956 450 2595 179 
Q 2234 -91 1600 -91 
Q 1278 -91 972 -22 
Q 666 47 359 184 
z
" transform="scale(0.015625)"/>
      </defs>
      <use xlink:href="#DejaVuSerif-43"/>
      <use xlink:href="#DejaVuSerif-6f" transform="translate(76.513672 0)"/>
      <use xlink:href="#DejaVuSerif-65" transform="translate(136.71875 0)"/>
      <use xlink:href="#DejaVuSerif-66" transform="translate(195.898438 0)"/>
      <use xlink:href="#DejaVuSerif-66" transform="translate(232.910156 0)"/>
      <use xlink:href="#DejaVuSerif-69" transform="translate(269.921875 0)"/>
      <use xlink:href="#DejaVuSerif-63" transform="translate(301.904297 0)"/>
      <use xlink:href="#DejaVuSerif-69" transform="translate(357.910156 0)"/>
      <use xlink:href="#DejaVuSerif-65" transform="translate(389.892578 0)"/>
      <use xlink:href="#DejaVuSerif-6e" transform="translate(449.072266 0)"/>
      <use xlink:href="#DejaVuSerif-74" transform="translate(513.476562 0)"/>
      <use xlink:href="#DejaVuSerif-20" transform="translate(553.662109 0)"/>
      <use xlink:href="#DejaVuSerif-65" transform="translate(585.449219 0)"/>
      <use xlink:href="#DejaVuSerif-73" transform="translate(644.628906 0)"/>
      <use xlink:href="#DejaVuSerif-74" transform="translate(695.947266 0)"/>
      <use xlink:href="#DejaVuSerif-69" transform="translate(736.132812 0)"/>
      <use xlink:href="#DejaVuSerif-6d" transform="translate(768.115234 0)"/>
      <use xlink:href="#DejaVuSerif-61" transform="translate(862.939453 0)"/>
      <use xlink:href="#DejaVuSerif-74" transform="translate(922.558594 0)"/>
      <use xlink:href="#DejaVuSerif-65" transform="translate(962.744141 0)"/>
     </g>
    </g>
   </g>
   <g id="matplotlib.axis_4">
    <g id="ytick_4">
     <g id="line2d_34"/>
     <g id="text_20">
      <!-- Solar PV adoption -->
      <g style="fill: #1f2933" transform="translate(20.84375 294.018855) scale(0.1 -0.1)">
       <use xlink:href="#DejaVuSerif-53"/>
       <use xlink:href="#DejaVuSerif-6f" transform="translate(68.505859 0)"/>
       <use xlink:href="#DejaVuSerif-6c" transform="translate(128.710938 0)"/>
       <use xlink:href="#DejaVuSerif-61" transform="translate(160.693359 0)"/>
       <use xlink:href="#DejaVuSerif-72" transform="translate(220.3125 0)"/>
       <use xlink:href="#DejaVuSerif-20" transform="translate(268.115234 0)"/>
       <use xlink:href="#DejaVuSerif-50" transform="translate(299.902344 0)"/>
       <use xlink:href="#DejaVuSerif-56" transform="translate(367.1875 0)"/>
       <use xlink:href="#DejaVuSerif-20" transform="translate(439.404297 0)"/>
       <use xlink:href="#DejaVuSerif-61" transform="translate(471.191406 0)"/>
       <use xlink:href="#DejaVuSerif-64" transform="translate(530.810547 0)"/>
       <use xlink:href="#DejaVuSerif-6f" transform="translate(594.824219 0)"/>
       <use xlink:href="#DejaVuSerif-70" transform="translate(655.029297 0)"/>
       <use xlink:href="#DejaVuSerif-74" transform="translate(719.042969 0)"/>
       <use xlink:href="#DejaVuSerif-69" transform="translate(759.228516 0)"/>
       <use xlink:href="#DejaVuSerif-6f" transform="translate(791.210938 0)"/>
       <use xlink:href="#DejaVuSerif-6e" transform="translate(851.416016 0)"/>
      </g>
     </g>
    </g>
    <g id="ytick_5">
     <g id="line2d_35"/>
     <g id="text_21">
      <!-- Storage deployment -->
      <g style="fill: #1f2933" transform="translate(9.84375 355.575219) scale(0.1 -0.1)">
       <use xlink:href="#DejaVuSerif-53"/>
       <use xlink:href="#DejaVuSerif-74" transform="translate(68.505859 0)"/>
       <use xlink:href="#DejaVuSerif-6f" transform="translate(108.691406 0)"/>
       <use xlink:href="#DejaVuSerif-72" transform="translate(168.896484 0)"/>
       <use xlink:href="#DejaVuSerif-61" transform="translate(216.699219 0)"/>
       <use xlink:href="#DejaVuSerif-67" transform="translate(276.318359 0)"/>
       <use xlink:href="#DejaVuSerif-65" transform="translate(340.332031 0)"/>
       <use xlink:href="#DejaVuSerif-20" transform="translate(399.511719 0)"/>
       <use xlink:href="#DejaVuSerif-64" transform="translate(431.298828 0)"/>
       <use xlink:href="#DejaVuSerif-65" transform="translate(495.3125 0)"/>
       <use xlink:href="#DejaVuSerif-70" transform="translate(554.492188 0)"/>
       <use xlink:href="#DejaVuSerif-6c" transform="translate(618.505859 0)"/>
       <use xlink:href="#DejaVuSerif-6f" transform="translate(650.488281 0)"/>
       <use xlink:href="#DejaVuSerif-79" transform="translate(710.693359 0)"/>
       <use xlink:href="#DejaVuSerif-6d" transform="translate(767.1875 0)"/>
       <use xlink:href="#DejaVuSerif-65" transform="translate(862.011719 0)"/>
       <use xlink:href="#DejaVuSerif-6e" transform="translate(921.191406 0)"/>
       <use xlink:href="#DejaVuSerif-74" transform="translate(985.595703 0)"/>
      </g>
     </g>
    </g>
    <g id="ytick_6">
     <g id="line2d_36"/>
     <g id="text_22">
      <!-- EV charger adoption -->
      <g style="fill: #1f2933" transform="translate(7.2 417.131582) scale(0.1 -0.1)">
       <use xlink:href="#DejaVuSerif-45"/>
       <use xlink:href="#DejaVuSerif-56" transform="translate(72.998047 0)"/>
       <use xlink:href="#DejaVuSerif-20" transform="translate(145.214844 0)"/>
       <use xlink:href="#DejaVuSerif-63" transform="translate(177.001953 0)"/>
       <use xlink:href="#DejaVuSerif-68" transform="translate(233.007812 0)"/>
       <use xlink:href="#DejaVuSerif-61" transform="translate(297.412109 0)"/>
       <use xlink:href="#DejaVuSerif-72" transform="translate(357.03125 0)"/>
       <use xlink:href="#DejaVuSerif-67" transform="translate(404.833984 0)"/>
       <use xlink:href="#DejaVuSerif-65" transform="translate(468.847656 0)"/>
       <use xlink:href="#DejaVuSerif-72" transform="translate(528.027344 0)"/>
       <use xlink:href="#DejaVuSerif-20" transform="translate(575.830078 0)"/>
       <use xlink:href="#DejaVuSerif-61" transform="translate(607.617188 0)"/>
       <use xlink:href="#DejaVuSerif-64" transform="translate(667.236328 0)"/>
       <use xlink:href="#DejaVuSerif-6f" transform="translate(731.25 0)"/>
       <use xlink:href="#DejaVuSerif-70" transform="translate(791.455078 0)"/>
       <use xlink:href="#DejaVuSerif-74" transform="translate(855.46875 0)"/>
       <use xlink:href="#DejaVuSerif-69" transform="translate(895.654297 0)"/>
       <use xlink:href="#DejaVuSerif-6f" transform="translate(927.636719 0)"/>
       <use xlink:href="#DejaVuSerif-6e" transform="translate(987.841797 0)"/>
      </g>
     </g>
    </g>
   </g>
   <g id="LineCollection_4">
    <path d="M 272.373635 290.219636 
L 365.757078 290.219636 
" clip-path="url(#p2ce8bb2836)" style="fill: none; stroke: #8c6d1f; stroke-opacity: 0.95; stroke-width: 2.7"/>
   </g>
   <g id="LineCollection_5">
    <path d="M 176.777121 351.776 
L 283.418276 351.776 
" clip-path="url(#p2ce8bb2836)" style="fill: none; stroke: #cc79a7; stroke-opacity: 0.95; stroke-width: 2.7"/>
   </g>
   <g id="LineCollection_6">
    <path d="M 452.745002 413.332364 
L 557.102879 413.332364 
" clip-path="url(#p2ce8bb2836)" style="fill: none; stroke: #008b8b; stroke-opacity: 0.95; stroke-width: 2.7"/>
   </g>
   <g id="line2d_37">
    <path d="M 287.947786 419.488 
L 287.947786 284.064 
" clip-path="url(#p2ce8bb2836)" style="fill: none; stroke-dasharray: 4.44,1.92; stroke-dashoffset: 0; stroke: #52606d; stroke-opacity: 0.9; stroke-width: 1.2"/>
   </g>
   <g id="patch_5">
    <path d="M 115.925 419.488 
L 617.955 419.488 
" style="fill: none; stroke: #d9d4c7; stroke-width: 0.8; stroke-linejoin: miter; stroke-linecap: square"/>
   </g>
   <g id="line2d_38">
    <g clip-path="url(#p2ce8bb2836)">
     <use xlink:href="#m81c4afa901" x="319.065356" y="290.219636" style="fill: #8c6d1f; stroke: #ffffff; stroke-width: 0.9"/>
    </g>
   </g>
   <g id="line2d_39">
    <g clip-path="url(#p2ce8bb2836)">
     <use xlink:href="#m0864454458" x="230.097699" y="351.776" style="fill: #cc79a7; stroke: #ffffff; stroke-width: 0.9"/>
    </g>
   </g>
   <g id="text_23">
    <!-- * -->
    <g style="fill: #1f2933" transform="translate(291.949569 354.535375) scale(0.1 -0.1)">
     <use xlink:href="#DejaVuSerif-Bold-2a"/>
    </g>
   </g>
   <g id="line2d_40">
    <g clip-path="url(#p2ce8bb2836)">
     <use xlink:href="#m51021812ff" x="504.92394" y="413.332364" style="fill: #008b8b; stroke: #ffffff; stroke-width: 0.9"/>
    </g>
   </g>
   <g id="text_24">
    <!-- *** -->
    <g style="fill: #1f2933" transform="translate(565.451509 416.091739) scale(0.1 -0.1)">
     <use xlink:href="#DejaVuSerif-Bold-2a"/>
     <use xlink:href="#DejaVuSerif-Bold-2a" transform="translate(52.294922 0)"/>
     <use xlink:href="#DejaVuSerif-Bold-2a" transform="translate(104.589844 0)"/>
    </g>
   </g>
   <g id="text_25">
    <!-- Log affordability gap -->
    <g style="fill: #1f2933" transform="translate(115.925 276.064) scale(0.14 -0.14)">
     <defs>
      <path id="DejaVuSerif-Bold-4c" d="M 300 0 
L 300 378 
L 897 378 
L 897 4288 
L 300 4288 
L 300 4666 
L 2700 4666 
L 2700 4288 
L 2100 4288 
L 2100 428 
L 3938 428 
L 3938 1166 
L 4359 1166 
L 4359 0 
L 300 0 
z
" transform="scale(0.015625)"/>
      <path id="DejaVuSerif-Bold-6f" d="M 2138 263 
Q 2488 263 2630 563 
Q 2772 863 2772 1663 
Q 2772 2463 2631 2761 
Q 2491 3059 2138 3059 
Q 1784 3059 1640 2757 
Q 1497 2456 1497 1663 
Q 1497 869 1640 566 
Q 1784 263 2138 263 
z
M 2138 -91 
Q 1259 -91 761 376 
Q 263 844 263 1663 
Q 263 2484 761 2948 
Q 1259 3413 2138 3413 
Q 3019 3413 3516 2948 
Q 4013 2484 4013 1663 
Q 4013 844 3514 376 
Q 3016 -91 2138 -91 
z
" transform="scale(0.015625)"/>
      <path id="DejaVuSerif-Bold-61" d="M 3525 2041 
L 3525 378 
L 4000 378 
L 4000 0 
L 2419 0 
L 2419 422 
Q 2200 159 1931 34 
Q 1663 -91 1319 -91 
Q 809 -91 536 182 
Q 263 456 263 966 
Q 263 1525 655 1803 
Q 1047 2081 1838 2081 
L 2419 2081 
L 2419 2278 
Q 2419 2681 2228 2873 
Q 2038 3066 1638 3066 
Q 1306 3066 1126 2930 
Q 947 2794 872 2484 
L 519 2484 
L 519 3200 
Q 816 3306 1134 3359 
Q 1453 3413 1806 3413 
Q 2697 3413 3111 3081 
Q 3525 2750 3525 2041 
z
M 2419 1044 
L 2419 1709 
L 2003 1709 
Q 1694 1709 1528 1540 
Q 1363 1372 1363 1056 
Q 1363 741 1483 584 
Q 1603 428 1850 428 
Q 2106 428 2262 597 
Q 2419 766 2419 1044 
z
" transform="scale(0.015625)"/>
      <path id="DejaVuSerif-Bold-66" d="M 3097 4031 
L 2747 4031 
Q 2722 4275 2605 4394 
Q 2488 4513 2272 4513 
Q 2022 4513 1909 4333 
Q 1797 4153 1797 3750 
L 1797 3322 
L 2631 3322 
L 2631 2944 
L 1797 2944 
L 1797 378 
L 2438 378 
L 2438 0 
L 219 0 
L 219 378 
L 691 378 
L 691 2944 
L 197 2944 
L 197 3322 
L 691 3322 
L 691 3738 
Q 691 4291 1044 4577 
Q 1397 4863 2081 4863 
Q 2347 4863 2600 4833 
Q 2853 4803 3097 4744 
L 3097 4031 
z
" transform="scale(0.015625)"/>
      <path id="DejaVuSerif-Bold-69" d="M 588 4263 
Q 588 4516 763 4689 
Q 938 4863 1191 4863 
Q 1438 4863 1611 4689 
Q 1784 4516 1784 4263 
Q 1784 4016 1611 3842 
Q 1438 3669 1191 3669 
Q 938 3669 763 3841 
Q 588 4013 588 4263 
z
M 1797 378 
L 2272 378 
L 2272 0 
L 219 0 
L 219 378 
L 691 378 
L 691 2944 
L 219 2944 
L 219 3322 
L 1797 3322 
L 1797 378 
z
" transform="scale(0.015625)"/>
      <path id="DejaVuSerif-Bold-6c" d="M 1797 378 
L 2272 378 
L 2272 0 
L 219 0 
L 219 378 
L 691 378 
L 691 4488 
L 219 4488 
L 219 4863 
L 1797 4863 
L 1797 378 
z
" transform="scale(0.015625)"/>
      <path id="DejaVuSerif-Bold-74" d="M 634 2944 
L 153 2944 
L 153 3322 
L 634 3322 
L 634 4353 
L 1741 4353 
L 1741 3322 
L 2663 3322 
L 2663 2944 
L 1741 2944 
L 1741 909 
Q 1741 475 1809 369 
Q 1878 263 2059 263 
Q 2259 263 2356 397 
Q 2453 531 2459 813 
L 2925 813 
Q 2897 313 2651 111 
Q 2406 -91 1806 -91 
Q 1122 -91 878 123 
Q 634 338 634 909 
L 634 2944 
z
" transform="scale(0.015625)"/>
      <path id="DejaVuSerif-Bold-70" d="M 1728 1825 
L 1728 1497 
Q 1728 916 1876 656 
Q 2025 397 2356 397 
Q 2697 397 2836 672 
Q 2975 947 2975 1663 
Q 2975 2378 2836 2651 
Q 2697 2925 2356 2925 
Q 2025 2925 1876 2665 
Q 1728 2406 1728 1825 
z
M 622 2944 
L 147 2944 
L 147 3322 
L 1728 3322 
L 1728 2900 
Q 1869 3159 2106 3286 
Q 2344 3413 2694 3413 
Q 3403 3413 3811 2945 
Q 4219 2478 4219 1663 
Q 4219 847 3811 378 
Q 3403 -91 2694 -91 
Q 2344 -91 2106 36 
Q 1869 163 1728 422 
L 1728 -953 
L 2241 -953 
L 2241 -1331 
L 147 -1331 
L 147 -953 
L 622 -953 
L 622 2944 
z
" transform="scale(0.015625)"/>
     </defs>
     <use xlink:href="#DejaVuSerif-Bold-4c"/>
     <use xlink:href="#DejaVuSerif-Bold-6f" transform="translate(70.3125 0)"/>
     <use xlink:href="#DejaVuSerif-Bold-67" transform="translate(137.011719 0)"/>
     <use xlink:href="#DejaVuSerif-Bold-20" transform="translate(206.933594 0)"/>
     <use xlink:href="#DejaVuSerif-Bold-61" transform="translate(241.748047 0)"/>
     <use xlink:href="#DejaVuSerif-Bold-66" transform="translate(306.542969 0)"/>
     <use xlink:href="#DejaVuSerif-Bold-66" transform="translate(349.560547 0)"/>
     <use xlink:href="#DejaVuSerif-Bold-6f" transform="translate(392.578125 0)"/>
     <use xlink:href="#DejaVuSerif-Bold-72" transform="translate(459.277344 0)"/>
     <use xlink:href="#DejaVuSerif-Bold-64" transform="translate(511.962891 0)"/>
     <use xlink:href="#DejaVuSerif-Bold-61" transform="translate(581.884766 0)"/>
     <use xlink:href="#DejaVuSerif-Bold-62" transform="translate(646.679688 0)"/>
     <use xlink:href="#DejaVuSerif-Bold-69" transform="translate(716.601562 0)"/>
     <use xlink:href="#DejaVuSerif-Bold-6c" transform="translate(754.589844 0)"/>
     <use xlink:href="#DejaVuSerif-Bold-69" transform="translate(792.578125 0)"/>
     <use xlink:href="#DejaVuSerif-Bold-74" transform="translate(830.566406 0)"/>
     <use xlink:href="#DejaVuSerif-Bold-79" transform="translate(876.757812 0)"/>
     <use xlink:href="#DejaVuSerif-Bold-20" transform="translate(934.863281 0)"/>
     <use xlink:href="#DejaVuSerif-Bold-67" transform="translate(969.677734 0)"/>
     <use xlink:href="#DejaVuSerif-Bold-61" transform="translate(1039.599609 0)"/>
     <use xlink:href="#DejaVuSerif-Bold-70" transform="translate(1104.394531 0)"/>
    </g>
   </g>
  </g>
  <g id="text_26">
   <!-- DER predictors in the burden-outcome M9 model -->
   <g style="fill: #1f2933" transform="translate(69.1445 19.3575) scale(0.16 -0.16)">
    <defs>
     <path id="DejaVuSerif-Bold-44" d="M 2100 378 
L 2534 378 
Q 3266 378 3605 847 
Q 3944 1316 3944 2338 
Q 3944 3353 3606 3820 
Q 3269 4288 2534 4288 
L 2100 4288 
L 2100 378 
z
M 300 0 
L 300 378 
L 897 378 
L 897 4288 
L 300 4288 
L 300 4666 
L 2694 4666 
Q 3950 4666 4615 4066 
Q 5281 3466 5281 2338 
Q 5281 1203 4614 601 
Q 3947 0 2694 0 
L 300 0 
z
" transform="scale(0.015625)"/>
     <path id="DejaVuSerif-Bold-52" d="M 3397 2278 
Q 3675 2238 3865 2094 
Q 4056 1950 4197 1678 
L 4878 378 
L 5356 378 
L 5356 0 
L 3822 0 
L 3078 1409 
Q 2863 1847 2711 1967 
Q 2559 2088 2291 2088 
L 2100 2088 
L 2100 378 
L 2700 378 
L 2700 0 
L 300 0 
L 300 378 
L 897 378 
L 897 4288 
L 300 4288 
L 300 4666 
L 2963 4666 
Q 3775 4666 4217 4339 
Q 4659 4013 4659 3413 
Q 4659 2925 4345 2642 
Q 4031 2359 3397 2278 
z
M 2100 2463 
L 2509 2463 
Q 2947 2463 3183 2700 
Q 3419 2938 3419 3378 
Q 3419 3819 3183 4053 
Q 2947 4288 2509 4288 
L 2100 4288 
L 2100 2463 
z
" transform="scale(0.015625)"/>
     <path id="DejaVuSerif-Bold-63" d="M 3609 1038 
Q 3491 469 3123 189 
Q 2756 -91 2125 -91 
Q 1238 -91 750 368 
Q 263 828 263 1663 
Q 263 2488 744 2950 
Q 1225 3413 2081 3413 
Q 2428 3413 2781 3347 
Q 3134 3281 3500 3150 
L 3500 2228 
L 3150 2228 
Q 3100 2650 2903 2854 
Q 2706 3059 2350 3059 
Q 1888 3059 1692 2746 
Q 1497 2434 1497 1663 
Q 1497 909 1687 586 
Q 1878 263 2309 263 
Q 2644 263 2845 463 
Q 3047 663 3091 1038 
L 3609 1038 
z
" transform="scale(0.015625)"/>
     <path id="DejaVuSerif-Bold-73" d="M 300 97 
L 300 1025 
L 653 1025 
Q 697 653 931 458 
Q 1166 263 1569 263 
Q 1906 263 2086 380 
Q 2266 497 2266 716 
Q 2266 916 2152 1025 
Q 2038 1134 1709 1216 
L 1253 1331 
Q 738 1459 506 1698 
Q 275 1938 275 2344 
Q 275 2884 650 3148 
Q 1025 3413 1806 3413 
Q 2100 3413 2433 3364 
Q 2766 3316 3169 3213 
L 3169 2375 
L 2816 2375 
Q 2788 2716 2573 2887 
Q 2359 3059 1959 3059 
Q 1622 3059 1448 2951 
Q 1275 2844 1275 2638 
Q 1275 2469 1375 2372 
Q 1475 2275 1734 2209 
L 2188 2094 
Q 2841 1928 3091 1684 
Q 3341 1441 3341 1006 
Q 3341 444 2939 176 
Q 2538 -91 1691 -91 
Q 1381 -91 1034 -44 
Q 688 3 300 97 
z
" transform="scale(0.015625)"/>
     <path id="DejaVuSerif-Bold-68" d="M 219 0 
L 219 378 
L 691 378 
L 691 4488 
L 197 4488 
L 197 4863 
L 1797 4863 
L 1797 2853 
Q 1997 3150 2253 3281 
Q 2509 3413 2900 3413 
Q 3459 3413 3745 3083 
Q 4031 2753 4031 2113 
L 4031 378 
L 4506 378 
L 4506 0 
L 2522 0 
L 2522 378 
L 2925 378 
L 2925 2144 
Q 2925 2566 2817 2730 
Q 2709 2894 2444 2894 
Q 2109 2894 1953 2648 
Q 1797 2403 1797 1869 
L 1797 378 
L 2203 378 
L 2203 0 
L 219 0 
z
" transform="scale(0.015625)"/>
     <path id="DejaVuSerif-Bold-2d" d="M 347 2138 
L 2309 2138 
L 2309 1294 
L 347 1294 
L 347 2138 
z
" transform="scale(0.015625)"/>
     <path id="DejaVuSerif-Bold-6d" d="M 3884 2778 
Q 4116 3109 4384 3261 
Q 4653 3413 5013 3413 
Q 5584 3413 5867 3089 
Q 6150 2766 6150 2113 
L 6150 378 
L 6625 378 
L 6625 0 
L 4647 0 
L 4647 378 
L 5044 378 
L 5044 1947 
Q 5044 2569 4948 2731 
Q 4853 2894 4594 2894 
Q 4300 2894 4137 2667 
Q 3975 2441 3975 2022 
L 3975 378 
L 4372 378 
L 4372 0 
L 2472 0 
L 2472 378 
L 2869 378 
L 2869 1947 
Q 2869 2569 2772 2731 
Q 2675 2894 2419 2894 
Q 2122 2894 1959 2667 
Q 1797 2441 1797 2022 
L 1797 378 
L 2194 378 
L 2194 0 
L 219 0 
L 219 378 
L 691 378 
L 691 2944 
L 219 2944 
L 219 3322 
L 1797 3322 
L 1797 2853 
Q 1991 3144 2241 3278 
Q 2491 3413 2834 3413 
Q 3241 3413 3494 3258 
Q 3747 3103 3884 2778 
z
" transform="scale(0.015625)"/>
     <path id="DejaVuSerif-Bold-4d" d="M 269 0 
L 269 378 
L 863 378 
L 863 4288 
L 269 4288 
L 269 4666 
L 2194 4666 
L 3525 1672 
L 4863 4666 
L 6784 4666 
L 6784 4288 
L 6188 4288 
L 6188 378 
L 6784 378 
L 6784 0 
L 4384 0 
L 4384 378 
L 4978 378 
L 4978 3938 
L 3531 684 
L 2741 684 
L 1300 3938 
L 1300 378 
L 1894 378 
L 1894 0 
L 269 0 
z
" transform="scale(0.015625)"/>
     <path id="DejaVuSerif-Bold-39" d="M 2181 4384 
Q 1859 4384 1723 4111 
Q 1588 3838 1588 3163 
Q 1588 2488 1723 2214 
Q 1859 1941 2181 1941 
Q 2503 1941 2640 2214 
Q 2778 2488 2778 3163 
Q 2778 3838 2640 4111 
Q 2503 4384 2181 4384 
z
M 2878 1900 
Q 2672 1734 2420 1651 
Q 2169 1569 1875 1569 
Q 1163 1569 755 1986 
Q 347 2403 347 3138 
Q 347 3913 803 4331 
Q 1259 4750 2106 4750 
Q 3063 4750 3556 4172 
Q 4050 3594 4050 2478 
Q 4050 1206 3503 557 
Q 2956 -91 1881 -91 
Q 1600 -91 1278 -44 
Q 956 3 588 97 
L 588 922 
L 966 922 
Q 1044 603 1261 439 
Q 1478 275 1825 275 
Q 2375 275 2625 658 
Q 2875 1041 2878 1900 
z
" transform="scale(0.015625)"/>
    </defs>
    <use xlink:href="#DejaVuSerif-Bold-44"/>
    <use xlink:href="#DejaVuSerif-Bold-45" transform="translate(86.71875 0)"/>
    <use xlink:href="#DejaVuSerif-Bold-52" transform="translate(162.939453 0)"/>
    <use xlink:href="#DejaVuSerif-Bold-20" transform="translate(246.044922 0)"/>
    <use xlink:href="#DejaVuSerif-Bold-70" transform="translate(280.859375 0)"/>
    <use xlink:href="#DejaVuSerif-Bold-72" transform="translate(350.78125 0)"/>
    <use xlink:href="#DejaVuSerif-Bold-65" transform="translate(403.466797 0)"/>
    <use xlink:href="#DejaVuSerif-Bold-64" transform="translate(467.089844 0)"/>
    <use xlink:href="#DejaVuSerif-Bold-69" transform="translate(537.011719 0)"/>
    <use xlink:href="#DejaVuSerif-Bold-63" transform="translate(575 0)"/>
    <use xlink:href="#DejaVuSerif-Bold-74" transform="translate(635.888672 0)"/>
    <use xlink:href="#DejaVuSerif-Bold-6f" transform="translate(682.080078 0)"/>
    <use xlink:href="#DejaVuSerif-Bold-72" transform="translate(748.779297 0)"/>
    <use xlink:href="#DejaVuSerif-Bold-73" transform="translate(801.464844 0)"/>
    <use xlink:href="#DejaVuSerif-Bold-20" transform="translate(857.763672 0)"/>
    <use xlink:href="#DejaVuSerif-Bold-69" transform="translate(892.578125 0)"/>
    <use xlink:href="#DejaVuSerif-Bold-6e" transform="translate(930.566406 0)"/>
    <use xlink:href="#DejaVuSerif-Bold-20" transform="translate(1003.271484 0)"/>
    <use xlink:href="#DejaVuSerif-Bold-74" transform="translate(1038.085938 0)"/>
    <use xlink:href="#DejaVuSerif-Bold-68" transform="translate(1084.277344 0)"/>
    <use xlink:href="#DejaVuSerif-Bold-65" transform="translate(1156.982422 0)"/>
    <use xlink:href="#DejaVuSerif-Bold-20" transform="translate(1220.605469 0)"/>
    <use xlink:href="#DejaVuSerif-Bold-62" transform="translate(1255.419922 0)"/>
    <use xlink:href="#DejaVuSerif-Bold-75" transform="translate(1325.341797 0)"/>
    <use xlink:href="#DejaVuSerif-Bold-72" transform="translate(1398.046875 0)"/>
    <use xlink:href="#DejaVuSerif-Bold-64" transform="translate(1450.732422 0)"/>
    <use xlink:href="#DejaVuSerif-Bold-65" transform="translate(1520.654297 0)"/>
    <use xlink:href="#DejaVuSerif-Bold-6e" transform="translate(1584.277344 0)"/>
    <use xlink:href="#DejaVuSerif-Bold-2d" transform="translate(1656.982422 0)"/>
    <use xlink:href="#DejaVuSerif-Bold-6f" transform="translate(1698.486328 0)"/>
    <use xlink:href="#DejaVuSerif-Bold-75" transform="translate(1765.185547 0)"/>
    <use xlink:href="#DejaVuSerif-Bold-74" transform="translate(1837.890625 0)"/>
    <use xlink:href="#DejaVuSerif-Bold-63" transform="translate(1884.082031 0)"/>
    <use xlink:href="#DejaVuSerif-Bold-6f" transform="translate(1944.970703 0)"/>
    <use xlink:href="#DejaVuSerif-Bold-6d" transform="translate(2011.669922 0)"/>
    <use xlink:href="#DejaVuSerif-Bold-65" transform="translate(2117.480469 0)"/>
    <use xlink:href="#DejaVuSerif-Bold-20" transform="translate(2181.103516 0)"/>
    <use xlink:href="#DejaVuSerif-Bold-4d" transform="translate(2215.917969 0)"/>
    <use xlink:href="#DejaVuSerif-Bold-39" transform="translate(2326.611328 0)"/>
    <use xlink:href="#DejaVuSerif-Bold-20" transform="translate(2396.191406 0)"/>
    <use xlink:href="#DejaVuSerif-Bold-6d" transform="translate(2431.005859 0)"/>
    <use xlink:href="#DejaVuSerif-Bold-6f" transform="translate(2536.816406 0)"/>
    <use xlink:href="#DejaVuSerif-Bold-64" transform="translate(2603.515625 0)"/>
    <use xlink:href="#DejaVuSerif-Bold-65" transform="translate(2673.4375 0)"/>
    <use xlink:href="#DejaVuSerif-Bold-6c" transform="translate(2737.060547 0)"/>
   </g>
  </g>
  <g id="text_27">
   <!-- Points show Model 9 coefficients; horizontal lines show 95% confidence intervals. -->
   <g style="fill: #52606d" transform="translate(78.27532 39.468398) scale(0.1025 -0.1025)">
    <defs>
     <path id="DejaVuSerif-77" d="M 3072 3322 
L 3922 728 
L 4672 2988 
L 4191 2988 
L 4191 3322 
L 5394 3322 
L 5394 2988 
L 5025 2988 
L 4038 0 
L 3559 0 
L 2741 2484 
L 1919 0 
L 1459 0 
L 475 2988 
L 103 2988 
L 103 3322 
L 1606 3322 
L 1606 2988 
L 1069 2988 
L 1813 728 
L 2669 3322 
L 3072 3322 
z
" transform="scale(0.015625)"/>
     <path id="DejaVuSerif-4d" d="M 353 0 
L 353 331 
L 947 331 
L 947 4331 
L 319 4331 
L 319 4666 
L 1678 4666 
L 3316 1344 
L 4953 4666 
L 6228 4666 
L 6228 4331 
L 5606 4331 
L 5606 331 
L 6203 331 
L 6203 0 
L 4378 0 
L 4378 331 
L 4972 331 
L 4972 3938 
L 3372 684 
L 2931 684 
L 1331 3938 
L 1331 331 
L 1925 331 
L 1925 0 
L 353 0 
z
" transform="scale(0.015625)"/>
     <path id="DejaVuSerif-39" d="M 2994 2091 
Q 2784 1856 2512 1740 
Q 2241 1625 1900 1625 
Q 1206 1625 804 2044 
Q 403 2463 403 3188 
Q 403 3897 839 4323 
Q 1275 4750 2003 4750 
Q 2794 4750 3217 4161 
Q 3641 3572 3641 2478 
Q 3641 1253 3137 581 
Q 2634 -91 1722 -91 
Q 1475 -91 1203 -44 
Q 931 3 647 97 
L 647 872 
L 997 872 
Q 1038 556 1241 387 
Q 1444 219 1784 219 
Q 2391 219 2687 676 
Q 2984 1134 2994 2091 
z
M 1978 4441 
Q 1534 4441 1298 4117 
Q 1063 3794 1063 3188 
Q 1063 2581 1298 2256 
Q 1534 1931 1978 1931 
Q 2422 1931 2658 2245 
Q 2894 2559 2894 3150 
Q 2894 3772 2656 4106 
Q 2419 4441 1978 4441 
z
" transform="scale(0.015625)"/>
     <path id="DejaVuSerif-3b" d="M 231 -622 
Q 525 -406 662 -114 
Q 800 178 800 594 
L 800 709 
L 1416 709 
Q 1391 175 1164 -208 
Q 938 -591 481 -872 
L 231 -622 
z
M 678 2363 
Q 678 2538 798 2658 
Q 919 2778 1094 2778 
Q 1269 2778 1389 2656 
Q 1509 2534 1509 2363 
Q 1509 2188 1389 2067 
Q 1269 1947 1094 1947 
Q 919 1947 798 2067 
Q 678 2188 678 2363 
z
" transform="scale(0.015625)"/>
     <path id="DejaVuSerif-7a" d="M 256 0 
L 256 269 
L 2338 2988 
L 691 2988 
L 691 2413 
L 359 2413 
L 359 3322 
L 3078 3322 
L 3078 3053 
L 997 331 
L 2803 331 
L 2803 934 
L 3138 934 
L 3138 0 
L 256 0 
z
" transform="scale(0.015625)"/>
     <path id="DejaVuSerif-25" d="M 1434 4459 
Q 1159 4459 1004 4200 
Q 850 3941 850 3475 
Q 850 3016 1008 2753 
Q 1166 2491 1434 2491 
Q 1700 2491 1854 2752 
Q 2009 3013 2009 3475 
Q 2009 3938 1854 4198 
Q 1700 4459 1434 4459 
z
M 4653 2169 
Q 4381 2169 4226 1906 
Q 4072 1644 4072 1178 
Q 4072 719 4228 458 
Q 4384 197 4653 197 
Q 4922 197 5075 458 
Q 5228 719 5228 1178 
Q 5228 1641 5073 1905 
Q 4919 2169 4653 2169 
z
M 4653 2450 
Q 5147 2450 5437 2106 
Q 5728 1763 5728 1178 
Q 5728 594 5436 251 
Q 5144 -91 4653 -91 
Q 4153 -91 3862 251 
Q 3572 594 3572 1178 
Q 3572 1766 3864 2108 
Q 4156 2450 4653 2450 
z
M 4263 4750 
L 4738 4750 
L 1819 -91 
L 1344 -91 
L 4263 4750 
z
M 1428 4750 
Q 1922 4750 2215 4408 
Q 2509 4066 2509 3481 
Q 2509 2891 2217 2550 
Q 1925 2209 1428 2209 
Q 931 2209 642 2551 
Q 353 2894 353 3481 
Q 353 4063 643 4406 
Q 934 4750 1428 4750 
z
" transform="scale(0.015625)"/>
     <path id="DejaVuSerif-76" d="M 1581 0 
L 359 2988 
L -19 2988 
L -19 3322 
L 1509 3322 
L 1509 2988 
L 978 2988 
L 1913 703 
L 2847 2988 
L 2350 2988 
L 2350 3322 
L 3597 3322 
L 3597 2988 
L 3225 2988 
L 2003 0 
L 1581 0 
z
" transform="scale(0.015625)"/>
    </defs>
    <use xlink:href="#DejaVuSerif-50"/>
    <use xlink:href="#DejaVuSerif-6f" transform="translate(63.285156 0)"/>
    <use xlink:href="#DejaVuSerif-69" transform="translate(123.490234 0)"/>
    <use xlink:href="#DejaVuSerif-6e" transform="translate(155.472656 0)"/>
    <use xlink:href="#DejaVuSerif-74" transform="translate(219.876953 0)"/>
    <use xlink:href="#DejaVuSerif-73" transform="translate(260.0625 0)"/>
    <use xlink:href="#DejaVuSerif-20" transform="translate(311.380859 0)"/>
    <use xlink:href="#DejaVuSerif-73" transform="translate(343.167969 0)"/>
    <use xlink:href="#DejaVuSerif-68" transform="translate(394.486328 0)"/>
    <use xlink:href="#DejaVuSerif-6f" transform="translate(458.890625 0)"/>
    <use xlink:href="#DejaVuSerif-77" transform="translate(519.095703 0)"/>
    <use xlink:href="#DejaVuSerif-20" transform="translate(604.691406 0)"/>
    <use xlink:href="#DejaVuSerif-4d" transform="translate(636.478516 0)"/>
    <use xlink:href="#DejaVuSerif-6f" transform="translate(738.871094 0)"/>
    <use xlink:href="#DejaVuSerif-64" transform="translate(799.076172 0)"/>
    <use xlink:href="#DejaVuSerif-65" transform="translate(863.089844 0)"/>
    <use xlink:href="#DejaVuSerif-6c" transform="translate(922.269531 0)"/>
    <use xlink:href="#DejaVuSerif-20" transform="translate(954.251953 0)"/>
    <use xlink:href="#DejaVuSerif-39" transform="translate(986.039062 0)"/>
    <use xlink:href="#DejaVuSerif-20" transform="translate(1049.662109 0)"/>
    <use xlink:href="#DejaVuSerif-63" transform="translate(1081.449219 0)"/>
    <use xlink:href="#DejaVuSerif-6f" transform="translate(1137.455078 0)"/>
    <use xlink:href="#DejaVuSerif-65" transform="translate(1197.660156 0)"/>
    <use xlink:href="#DejaVuSerif-66" transform="translate(1256.839844 0)"/>
    <use xlink:href="#DejaVuSerif-66" transform="translate(1293.851562 0)"/>
    <use xlink:href="#DejaVuSerif-69" transform="translate(1330.863281 0)"/>
    <use xlink:href="#DejaVuSerif-63" transform="translate(1362.845703 0)"/>
    <use xlink:href="#DejaVuSerif-69" transform="translate(1418.851562 0)"/>
    <use xlink:href="#DejaVuSerif-65" transform="translate(1450.833984 0)"/>
    <use xlink:href="#DejaVuSerif-6e" transform="translate(1510.013672 0)"/>
    <use xlink:href="#DejaVuSerif-74" transform="translate(1574.417969 0)"/>
    <use xlink:href="#DejaVuSerif-73" transform="translate(1614.603516 0)"/>
    <use xlink:href="#DejaVuSerif-3b" transform="translate(1665.921875 0)"/>
    <use xlink:href="#DejaVuSerif-20" transform="translate(1699.613281 0)"/>
    <use xlink:href="#DejaVuSerif-68" transform="translate(1731.400391 0)"/>
    <use xlink:href="#DejaVuSerif-6f" transform="translate(1795.804688 0)"/>
    <use xlink:href="#DejaVuSerif-72" transform="translate(1856.009766 0)"/>
    <use xlink:href="#DejaVuSerif-69" transform="translate(1903.8125 0)"/>
    <use xlink:href="#DejaVuSerif-7a" transform="translate(1935.794922 0)"/>
    <use xlink:href="#DejaVuSerif-6f" transform="translate(1988.480469 0)"/>
    <use xlink:href="#DejaVuSerif-6e" transform="translate(2048.685547 0)"/>
    <use xlink:href="#DejaVuSerif-74" transform="translate(2113.089844 0)"/>
    <use xlink:href="#DejaVuSerif-61" transform="translate(2153.275391 0)"/>
    <use xlink:href="#DejaVuSerif-6c" transform="translate(2212.894531 0)"/>
    <use xlink:href="#DejaVuSerif-20" transform="translate(2244.876953 0)"/>
    <use xlink:href="#DejaVuSerif-6c" transform="translate(2276.664062 0)"/>
    <use xlink:href="#DejaVuSerif-69" transform="translate(2308.646484 0)"/>
    <use xlink:href="#DejaVuSerif-6e" transform="translate(2340.628906 0)"/>
    <use xlink:href="#DejaVuSerif-65" transform="translate(2405.033203 0)"/>
    <use xlink:href="#DejaVuSerif-73" transform="translate(2464.212891 0)"/>
    <use xlink:href="#DejaVuSerif-20" transform="translate(2515.53125 0)"/>
    <use xlink:href="#DejaVuSerif-73" transform="translate(2547.318359 0)"/>
    <use xlink:href="#DejaVuSerif-68" transform="translate(2598.636719 0)"/>
    <use xlink:href="#DejaVuSerif-6f" transform="translate(2663.041016 0)"/>
    <use xlink:href="#DejaVuSerif-77" transform="translate(2723.246094 0)"/>
    <use xlink:href="#DejaVuSerif-20" transform="translate(2808.841797 0)"/>
    <use xlink:href="#DejaVuSerif-39" transform="translate(2840.628906 0)"/>
    <use xlink:href="#DejaVuSerif-35" transform="translate(2904.251953 0)"/>
    <use xlink:href="#DejaVuSerif-25" transform="translate(2967.875 0)"/>
    <use xlink:href="#DejaVuSerif-20" transform="translate(3062.894531 0)"/>
    <use xlink:href="#DejaVuSerif-63" transform="translate(3094.681641 0)"/>
    <use xlink:href="#DejaVuSerif-6f" transform="translate(3150.6875 0)"/>
    <use xlink:href="#DejaVuSerif-6e" transform="translate(3210.892578 0)"/>
    <use xlink:href="#DejaVuSerif-66" transform="translate(3275.296875 0)"/>
    <use xlink:href="#DejaVuSerif-69" transform="translate(3312.308594 0)"/>
    <use xlink:href="#DejaVuSerif-64" transform="translate(3344.291016 0)"/>
    <use xlink:href="#DejaVuSerif-65" transform="translate(3408.304688 0)"/>
    <use xlink:href="#DejaVuSerif-6e" transform="translate(3467.484375 0)"/>
    <use xlink:href="#DejaVuSerif-63" transform="translate(3531.888672 0)"/>
    <use xlink:href="#DejaVuSerif-65" transform="translate(3587.894531 0)"/>
    <use xlink:href="#DejaVuSerif-20" transform="translate(3647.074219 0)"/>
    <use xlink:href="#DejaVuSerif-69" transform="translate(3678.861328 0)"/>
    <use xlink:href="#DejaVuSerif-6e" transform="translate(3710.84375 0)"/>
    <use xlink:href="#DejaVuSerif-74" transform="translate(3775.248047 0)"/>
    <use xlink:href="#DejaVuSerif-65" transform="translate(3815.433594 0)"/>
    <use xlink:href="#DejaVuSerif-72" transform="translate(3874.613281 0)"/>
    <use xlink:href="#DejaVuSerif-76" transform="translate(3922.416016 0)"/>
    <use xlink:href="#DejaVuSerif-61" transform="translate(3978.910156 0)"/>
    <use xlink:href="#DejaVuSerif-6c" transform="translate(4038.529297 0)"/>
    <use xlink:href="#DejaVuSerif-73" transform="translate(4070.511719 0)"/>
    <use xlink:href="#DejaVuSerif-2e" transform="translate(4121.830078 0)"/>
   </g>
  </g>
  <g id="text_28">
   <!-- Significance: *** p &lt; 0.001, ** p &lt; 0.01, * p &lt; 0.05, · p &lt; 0.10 -->
   <g style="fill: #52606d" transform="translate(142.000711 483.0912) scale(0.095 -0.095)">
    <defs>
     <path id="DejaVuSerif-3a" d="M 666 325 
Q 666 500 786 622 
Q 906 744 1081 744 
Q 1256 744 1376 622 
Q 1497 500 1497 325 
Q 1497 150 1378 29 
Q 1259 -91 1081 -91 
Q 903 -91 784 29 
Q 666 150 666 325 
z
M 666 2363 
Q 666 2538 786 2658 
Q 906 2778 1081 2778 
Q 1259 2778 1378 2659 
Q 1497 2541 1497 2363 
Q 1497 2184 1378 2065 
Q 1259 1947 1081 1947 
Q 906 1947 786 2067 
Q 666 2188 666 2363 
z
" transform="scale(0.015625)"/>
     <path id="DejaVuSerif-2a" d="M 3097 3866 
L 1875 3297 
L 3097 2719 
L 2859 2350 
L 1772 3028 
L 1813 1838 
L 1388 1838 
L 1428 3028 
L 341 2350 
L 103 2719 
L 1325 3291 
L 103 3866 
L 341 4238 
L 1428 3559 
L 1388 4750 
L 1813 4750 
L 1772 3559 
L 2859 4238 
L 3097 3866 
z
" transform="scale(0.015625)"/>
     <path id="DejaVuSerif-3c" d="M 4684 3188 
L 1441 2003 
L 4684 825 
L 4684 294 
L 678 1747 
L 678 2266 
L 4684 3719 
L 4684 3188 
z
" transform="scale(0.015625)"/>
     <path id="DejaVuSerif-2c" d="M 231 -622 
Q 525 -406 662 -114 
Q 800 178 800 594 
L 800 709 
L 1416 709 
Q 1391 175 1164 -208 
Q 938 -591 481 -872 
L 231 -622 
z
" transform="scale(0.015625)"/>
     <path id="DejaVuSerif-b7" d="M 594 2222 
Q 594 2397 714 2517 
Q 834 2638 1013 2638 
Q 1184 2638 1306 2516 
Q 1428 2394 1428 2222 
Q 1428 2047 1306 1926 
Q 1184 1806 1013 1806 
Q 834 1806 714 1925 
Q 594 2044 594 2222 
z
" transform="scale(0.015625)"/>
    </defs>
    <use xlink:href="#DejaVuSerif-53"/>
    <use xlink:href="#DejaVuSerif-69" transform="translate(68.505859 0)"/>
    <use xlink:href="#DejaVuSerif-67" transform="translate(100.488281 0)"/>
    <use xlink:href="#DejaVuSerif-6e" transform="translate(164.501953 0)"/>
    <use xlink:href="#DejaVuSerif-69" transform="translate(228.90625 0)"/>
    <use xlink:href="#DejaVuSerif-66" transform="translate(260.888672 0)"/>
    <use xlink:href="#DejaVuSerif-69" transform="translate(297.900391 0)"/>
    <use xlink:href="#DejaVuSerif-63" transform="translate(329.882812 0)"/>
    <use xlink:href="#DejaVuSerif-61" transform="translate(385.888672 0)"/>
    <use xlink:href="#DejaVuSerif-6e" transform="translate(445.507812 0)"/>
    <use xlink:href="#DejaVuSerif-63" transform="translate(509.912109 0)"/>
    <use xlink:href="#DejaVuSerif-65" transform="translate(565.917969 0)"/>
    <use xlink:href="#DejaVuSerif-3a" transform="translate(625.097656 0)"/>
    <use xlink:href="#DejaVuSerif-20" transform="translate(658.789062 0)"/>
    <use xlink:href="#DejaVuSerif-2a" transform="translate(690.576172 0)"/>
    <use xlink:href="#DejaVuSerif-2a" transform="translate(740.576172 0)"/>
    <use xlink:href="#DejaVuSerif-2a" transform="translate(790.576172 0)"/>
    <use xlink:href="#DejaVuSerif-20" transform="translate(840.576172 0)"/>
    <use xlink:href="#DejaVuSerif-70" transform="translate(872.363281 0)"/>
    <use xlink:href="#DejaVuSerif-20" transform="translate(936.376953 0)"/>
    <use xlink:href="#DejaVuSerif-3c" transform="translate(968.164062 0)"/>
    <use xlink:href="#DejaVuSerif-20" transform="translate(1051.953125 0)"/>
    <use xlink:href="#DejaVuSerif-30" transform="translate(1083.740234 0)"/>
    <use xlink:href="#DejaVuSerif-2e" transform="translate(1147.363281 0)"/>
    <use xlink:href="#DejaVuSerif-30" transform="translate(1179.150391 0)"/>
    <use xlink:href="#DejaVuSerif-30" transform="translate(1242.773438 0)"/>
    <use xlink:href="#DejaVuSerif-31" transform="translate(1306.396484 0)"/>
    <use xlink:href="#DejaVuSerif-2c" transform="translate(1370.019531 0)"/>
    <use xlink:href="#DejaVuSerif-20" transform="translate(1401.806641 0)"/>
    <use xlink:href="#DejaVuSerif-2a" transform="translate(1433.59375 0)"/>
    <use xlink:href="#DejaVuSerif-2a" transform="translate(1483.59375 0)"/>
    <use xlink:href="#DejaVuSerif-20" transform="translate(1533.59375 0)"/>
    <use xlink:href="#DejaVuSerif-70" transform="translate(1565.380859 0)"/>
    <use xlink:href="#DejaVuSerif-20" transform="translate(1629.394531 0)"/>
    <use xlink:href="#DejaVuSerif-3c" transform="translate(1661.181641 0)"/>
    <use xlink:href="#DejaVuSerif-20" transform="translate(1744.970703 0)"/>
    <use xlink:href="#DejaVuSerif-30" transform="translate(1776.757812 0)"/>
    <use xlink:href="#DejaVuSerif-2e" transform="translate(1840.380859 0)"/>
    <use xlink:href="#DejaVuSerif-30" transform="translate(1872.167969 0)"/>
    <use xlink:href="#DejaVuSerif-31" transform="translate(1935.791016 0)"/>
    <use xlink:href="#DejaVuSerif-2c" transform="translate(1999.414062 0)"/>
    <use xlink:href="#DejaVuSerif-20" transform="translate(2031.201172 0)"/>
    <use xlink:href="#DejaVuSerif-2a" transform="translate(2062.988281 0)"/>
    <use xlink:href="#DejaVuSerif-20" transform="translate(2112.988281 0)"/>
    <use xlink:href="#DejaVuSerif-70" transform="translate(2144.775391 0)"/>
    <use xlink:href="#DejaVuSerif-20" transform="translate(2208.789062 0)"/>
    <use xlink:href="#DejaVuSerif-3c" transform="translate(2240.576172 0)"/>
    <use xlink:href="#DejaVuSerif-20" transform="translate(2324.365234 0)"/>
    <use xlink:href="#DejaVuSerif-30" transform="translate(2356.152344 0)"/>
    <use xlink:href="#DejaVuSerif-2e" transform="translate(2419.775391 0)"/>
    <use xlink:href="#DejaVuSerif-30" transform="translate(2451.5625 0)"/>
    <use xlink:href="#DejaVuSerif-35" transform="translate(2515.185547 0)"/>
    <use xlink:href="#DejaVuSerif-2c" transform="translate(2578.808594 0)"/>
    <use xlink:href="#DejaVuSerif-20" transform="translate(2610.595703 0)"/>
    <use xlink:href="#DejaVuSerif-b7" transform="translate(2642.382812 0)"/>
    <use xlink:href="#DejaVuSerif-20" transform="translate(2674.169922 0)"/>
    <use xlink:href="#DejaVuSerif-70" transform="translate(2705.957031 0)"/>
    <use xlink:href="#DejaVuSerif-20" transform="translate(2769.970703 0)"/>
    <use xlink:href="#DejaVuSerif-3c" transform="translate(2801.757812 0)"/>
    <use xlink:href="#DejaVuSerif-20" transform="translate(2885.546875 0)"/>
    <use xlink:href="#DejaVuSerif-30" transform="translate(2917.333984 0)"/>
    <use xlink:href="#DejaVuSerif-2e" transform="translate(2980.957031 0)"/>
    <use xlink:href="#DejaVuSerif-31" transform="translate(3012.744141 0)"/>
    <use xlink:href="#DejaVuSerif-30" transform="translate(3076.367188 0)"/>
   </g>
  </g>
 </g>
 <defs>
  <clipPath id="p2f58eb05db">
   <rect x="115.925" y="101.6" width="502.03" height="135.424"/>
  </clipPath>
  <clipPath id="p2ce8bb2836">
   <rect x="115.925" y="284.064" width="502.03" height="135.424"/>
  </clipPath>
 </defs>
</svg>
